<?xml version="1.0" encoding="utf-8"?>
<!-- Generator: Adobe Illustrator 19.1.0, SVG Export Plug-In . SVG Version: 6.00 Build 0)  -->
<svg version="1.1" id="Layer_1" xmlns="http://www.w3.org/2000/svg" xmlns:xlink="http://www.w3.org/1999/xlink" x="0px" y="0px"
	 viewBox="0 0 438.5 82.2" style="enable-background:new 0 0 438.5 82.2;" xml:space="preserve">
<style type="text/css">
	.st0{fill:#66665D;}
	.st1{fill:url(#SVGID_1_);}
</style>
<g>
	<g>
		<g>
			<path class="st0" d="M69,80.9v1.3h-7.6V71h7.4v1.3h-6v3.6h5.2V77h-5.2v3.8H69z"/>
			<path class="st0" d="M74.6,71l3.7,9.4l3.7-9.4h1.5l-4.5,11.1h-1.2L73.1,71H74.6z"/>
			<path class="st0" d="M95.5,80.9v1.3h-7.6V71h7.4v1.3h-6v3.6h5.2V77h-5.2v3.8H95.5z"/>
			<path class="st0" d="M101.8,73.6v8.5h-1.4V71h1.1l6.9,8.7V71h1.4v11.1h-1.2L101.8,73.6z"/>
			<path class="st0" d="M123.4,72.2h-3.8v9.9h-1.4v-9.9h-3.8V71h9.1V72.2z"/>
		</g>
		<g>
			<path class="st0" d="M180.1,82.1V71h4.6c2,0,3.4,1.8,3.4,3.6c0,1.8-1.3,3.6-3.3,3.6h-3.3v4H180.1z M181.5,76.9h3.2
				c1.2,0,1.9-1.1,1.9-2.3c0-1.3-0.9-2.3-2-2.3h-3.1V76.9z"/>
			<path class="st0" d="M192.8,82.1V71h1.4v9.9h6.2v1.3H192.8z"/>
			<path class="st0" d="M204.4,82.1L209,71h1.2l4.6,11.1h-1.5l-1.3-3.3h-4.7l-1.3,3.3H204.4z M209.6,72.6l-2.1,5.1h4.1L209.6,72.6z"
				/>
			<path class="st0" d="M220.6,73.6v8.5h-1.4V71h1.1l6.9,8.7V71h1.4v11.1h-1.2L220.6,73.6z"/>
			<path class="st0" d="M235.8,73.6v8.5h-1.4V71h1.1l6.9,8.7V71h1.4v11.1h-1.2L235.8,73.6z"/>
			<path class="st0" d="M249.6,82.1V71h1.4v11.1H249.6z"/>
			<path class="st0" d="M258.2,73.6v8.5h-1.4V71h1.1l6.9,8.7V71h1.4v11.1H265L258.2,73.6z"/>
			<path class="st0" d="M279.8,80.6c-1,1.1-2.1,1.6-3.4,1.6c-2.9,0-5.2-2.8-5.2-5.7c0-3,2.2-5.6,5.2-5.6c2.1,0,3.5,1,4.2,2.4
				l-1.1,0.8c-0.7-1.3-1.8-1.9-3.2-1.9c-2.3,0-3.7,2.1-3.7,4.4c0,2.4,1.7,4.4,3.9,4.4c1.2,0,2.3-0.6,3.3-1.8v-1.5h-2.4v-1.1h3.6v5.5
				h-1.2V80.6z"/>
			<path class="st0" d="M297.9,76v1.1H296v2h-1.3v-2h-1.8V76h1.8v-2h1.3v2H297.9z"/>
			<path class="st0" d="M310.2,82.1V71h3.9c3.6,0,5.4,2.5,5.4,5.5c0,3.4-2.1,5.6-5.4,5.6H310.2z M314.1,72.2h-2.4v8.6h2.4
				c2.6,0,3.9-1.9,3.9-4.3C318,74,316.6,72.2,314.1,72.2z"/>
			<path class="st0" d="M332.2,80.9v1.3h-7.6V71h7.4v1.3h-6v3.6h5.2V77H326v3.8H332.2z"/>
			<path class="st0" d="M343.9,73.3c-0.5-0.6-1.7-1.2-3-1.2c-1.7,0-2.5,0.7-2.5,1.8c0,1.2,0.9,1.5,2.9,2c2.3,0.5,3.8,1.2,3.8,3.2
				c0,2.1-1.8,3.1-4,3.1c-1.7,0-3.3-0.5-4.5-1.6l0.7-1.2c0.7,0.7,2.2,1.5,3.9,1.5c1.6,0,2.5-0.6,2.5-1.7c0-1.3-1.1-1.6-3.2-2.1
				c-2.3-0.5-3.4-1.2-3.4-2.9c0-2.1,1.7-3.3,4-3.3c1.5,0,2.7,0.5,3.7,1.3L343.9,73.3z"/>
			<path class="st0" d="M350.1,82.1V71h1.4v11.1H350.1z"/>
			<path class="st0" d="M365.2,80.6c-1,1.1-2.1,1.6-3.4,1.6c-2.9,0-5.2-2.8-5.2-5.7c0-3,2.2-5.6,5.2-5.6c2.1,0,3.5,1,4.2,2.4
				l-1.1,0.8c-0.7-1.3-1.8-1.9-3.2-1.9c-2.3,0-3.7,2.1-3.7,4.4c0,2.4,1.7,4.4,3.9,4.4c1.2,0,2.3-0.6,3.3-1.8v-1.5h-2.4v-1.1h3.6v5.5
				h-1.2V80.6z"/>
			<path class="st0" d="M373.3,73.6v8.5h-1.4V71h1.1l6.9,8.7V71h1.4v11.1h-1.2L373.3,73.6z"/>
		</g>
	</g>
	<linearGradient id="SVGID_1_" gradientUnits="userSpaceOnUse" x1="98.2584" y1="146.0417" x2="322.2528" y2="-77.9527">
		<stop  offset="0" style="stop-color:#CDA349"/>
		<stop  offset="0.227" style="stop-color:#E2C675"/>
		<stop  offset="0.4908" style="stop-color:#EDD6A1"/>
		<stop  offset="0.5102" style="stop-color:#ECD59E"/>
		<stop  offset="0.5521" style="stop-color:#EBD39A"/>
		<stop  offset="0.7239" style="stop-color:#E2C675"/>
		<stop  offset="0.8171" style="stop-color:#DBBA66"/>
		<stop  offset="1" style="stop-color:#CDA349"/>
	</linearGradient>
	<path class="st1" d="M49.7,13.7c0,1-0.3,2.1-0.9,3.1c-0.6,1.1-1.5,2.1-2.8,3c-1,0.8-2.2,1.7-3.6,2.5c-1.4,0.9-2.8,1.7-4.3,2.5
		c-1.5,0.8-3,1.5-4.4,2.2c-1.5,0.7-2.8,1.2-4,1.7h0.9c1.6,0,3.2,0.1,4.6,0.3c1.4,0.2,2.7,0.5,3.7,0.8c1.3,0.4,2.3,1.1,3.1,2.1
		c0.7,0.9,1.1,2,1.1,3.2c0,0.4,0,0.8-0.1,1.2c-0.1,0.4-0.2,0.9-0.4,1.3c-0.4,1.1-0.9,2.1-1.5,3.2c-0.6,1.1-1.3,2.1-2.2,2.9
		c0.6-0.1,1.3-0.2,2-0.3c0.7-0.1,1.3-0.1,2-0.2c0.1,0,0.2,0,0.3,0c0.1,0.1,0.1,0.2,0.1,0.3c0,0.1-0.1,0.2-0.2,0.3
		c-0.1,0.1-0.3,0.2-0.6,0.3c-0.6,0.1-1.3,0.2-2.1,0.4c-0.8,0.1-1.7,0.3-2.6,0.5c-1.8,1.5-3.7,3-5.7,4.4c-2,1.4-4,2.6-6.1,3.7
		c-2.1,1.1-4.2,2-6.4,2.7c-2.2,0.7-4.4,1.3-6.6,1.6c-0.2,0.1-0.5,0.1-0.7,0.1c-0.2,0-0.4,0-0.7,0c-0.9,0-1.6-0.2-2.2-0.5
		c-0.5-0.3-0.8-0.8-0.8-1.4c0-0.6,0.3-1.3,1-2c0.7-0.7,1.7-1.5,3.1-2.2c1.3-0.7,2.8-1.4,4.5-2c1.7-0.7,3.5-1.3,5.5-1.9
		c2-0.6,4-1.2,6.1-1.7c2.1-0.5,4.3-1,6.6-1.4c0.6-0.6,1.1-1.2,1.5-1.8c0.5-0.6,0.9-1.2,1.2-1.7c0.4-0.6,0.7-1.2,1-1.8
		c0.3-0.6,0.5-1.3,0.8-2c0.1-0.3,0.2-0.7,0.2-1c0-0.3,0.1-0.6,0.1-0.9c0-0.8-0.2-1.6-0.5-2.2c-0.3-0.6-0.8-1.1-1.4-1.5
		c-0.8-0.4-1.7-0.8-2.8-0.9c-1.1-0.2-2.3-0.3-3.6-0.3c-1.2,0-2.3,0.1-3.4,0.2c-2.3,0.3-4.5,0.9-6.4,1.7c-1.9,0.8-3.7,1.7-5.4,2.7
		c-0.8,1.4-1.5,2.9-2.2,4.3c-0.7,1.4-1.4,2.7-2,4c-0.6,1.3-1.1,2.4-1.6,3.4c-0.5,1-0.8,1.9-1,2.5c-0.1,0.2-0.2,0.4-0.3,0.5
		c-0.1,0.1-0.3,0.1-0.4,0.1c-0.4,0-0.6-0.3-0.6-0.8c0-0.1,0-0.1,0-0.2c0-0.1,0-0.2,0.1-0.3c0.2-0.6,0.5-1.4,0.9-2.4
		c0.4-1,0.8-2,1.3-3.1c0.5-1.1,1-2.2,1.5-3.3c0.5-1.1,1-2.2,1.4-3.1c-0.5-0.2-0.8-0.4-1.1-0.6c-0.3-0.2-0.5-0.5-0.7-0.8
		c-0.2-0.3-0.4-0.6-0.4-0.8c0-0.2,0.1-0.4,0.2-0.5c0.1-0.2,0.3-0.3,0.6-0.4c0.5-0.2,1.1-0.5,1.6-0.7c0.6-0.2,1.2-0.5,1.8-0.7
		c0.7-1.1,1.4-2.4,2.1-3.7c0.7-1.4,1.5-2.8,2.2-4.2c0.7-1.5,1.5-3,2.2-4.5c0.7-1.5,1.5-3,2.1-4.5c0.7-1.5,1.3-2.9,2-4.3
		c0.6-1.4,1.2-2.7,1.7-3.9c-2.3,0.1-4.6,0.2-7,0.5c-2.4,0.2-4.7,0.5-6.9,0.9C12.1,8.5,10,9,8,9.6c-2,0.6-3.8,1.3-5.3,2.2
		c0,0.2-0.1,0.4-0.1,0.5c0,0.2-0.1,0.3-0.2,0.5C2.3,13,2.2,13.1,2,13.1c-0.1,0-0.3,0.1-0.4,0.1H1.4c-0.3-0.1-0.6-0.2-0.9-0.5
		C0.2,12.3,0,12,0,11.7c0-0.1,0-0.2,0.1-0.3c0.1-0.1,0.2-0.2,0.3-0.3c2-1.1,4.1-2,6.4-2.7c2.3-0.7,4.6-1.3,7.1-1.7
		c2.4-0.4,4.9-0.8,7.4-1c2.5-0.2,5-0.4,7.4-0.5c0.3-0.4,0.5-0.8,0.8-1.1c0.2-0.3,0.6-0.7,1-0.9C30.7,3,31,2.9,31.4,2.9
		c0.6,0,0.9,0.2,0.9,0.7v0.2c0,0.2,0,0.4-0.1,0.7c-0.1,0.2-0.1,0.5-0.2,0.7c0.7,0,1.5,0,2.6,0.1c1.1,0.1,2.2,0.2,3.3,0.4
		c1.2,0.2,2.4,0.4,3.5,0.7c1.2,0.3,2.2,0.6,3.2,1.1c1.7,0.8,3,1.7,3.8,2.8C49.3,11.3,49.7,12.4,49.7,13.7z M34.1,45.9
		c-1,0.2-2.1,0.5-3.3,0.8c-1.2,0.3-2.5,0.7-3.8,1.1c-1.3,0.4-2.6,0.8-3.9,1.3c-1.3,0.4-2.6,0.9-3.7,1.3c-1.2,0.4-2.3,0.9-3.2,1.3
		c-1,0.4-1.7,0.8-2.3,1.1c-1,0.5-1.6,1-2,1.4c-0.4,0.4-0.6,0.8-0.6,1.1c0,0.2,0.1,0.3,0.3,0.5c0.2,0.1,0.5,0.2,0.9,0.2
		c0.1,0,0.2,0,0.3,0c0.1,0,0.2,0,0.3,0c1.8-0.2,3.7-0.7,5.6-1.2c1.9-0.6,3.7-1.3,5.5-2.2c1.8-0.9,3.6-1.9,5.3-3
		C31,48.3,32.6,47.1,34.1,45.9z M46.6,13.7c0-0.9-0.2-1.7-0.7-2.4c-0.5-0.7-1.3-1.4-2.3-2c-0.9-0.5-1.8-0.8-2.8-1.2
		c-1-0.3-2-0.6-3-0.7c-1-0.2-2-0.3-3-0.4c-1-0.1-1.9-0.1-2.8-0.1h-0.6c-0.3,0.8-0.8,1.8-1.4,3c-0.6,1.2-1.2,2.5-2,3.9
		c-0.7,1.4-1.5,2.9-2.4,4.4c-0.8,1.5-1.7,3.1-2.5,4.6c-0.8,1.5-1.7,3-2.4,4.4c-0.8,1.4-1.5,2.7-2.2,3.9c1.3-0.4,2.7-0.8,4.2-1.4
		c1.5-0.5,3-1.1,4.6-1.8c1.6-0.6,3.2-1.3,4.8-2.1c1.6-0.7,3.1-1.5,4.6-2.3c1.5-0.8,2.8-1.7,4.1-2.5c1.3-0.9,2.4-1.8,3.4-2.7
		c0.8-0.8,1.5-1.6,1.9-2.4C46.4,15.2,46.6,14.4,46.6,13.7z M67.8,33.7c0,0.2,0,0.4,0,0.5c0,0.2,0,0.3-0.1,0.4
		c-0.2,0.2-0.3,0.3-0.5,0.4c-0.1,0.1-0.3,0.1-0.5,0.1c-0.2,0-0.3,0-0.5-0.1c-0.3-0.2-0.6-0.5-0.8-0.9c-0.2-0.4-0.4-0.8-0.6-1.1
		c-0.8,0.3-1.6,0.7-2.6,1.3c-0.9,0.6-1.9,1.3-2.9,2.2c-1,0.9-2,1.8-3,2.9c-1,1.1-2,2.2-3,3.4c-1,1.2-1.9,2.4-2.7,3.7
		c-0.8,1.3-1.6,2.5-2.3,3.7c-0.2,0.4-0.4,0.7-0.5,1c-0.2,0.3-0.3,0.5-0.6,0.6C47,52,46.8,52,46.6,52c-0.2,0-0.4-0.1-0.6-0.2
		c-0.2-0.2-0.3-0.3-0.3-0.5V51c0.2-0.5,0.4-1.1,0.7-1.8c0.3-0.7,0.7-1.4,1.1-2.1c0.2-0.6,0.4-1.2,0.6-2c0.3-0.8,0.5-1.6,0.9-2.6
		c0.3-0.9,0.7-1.9,1.1-2.9c0.4-1,0.9-2,1.3-3c0.3-0.6,0.7-1.4,1.2-2.2c0.5-0.8,1-1.7,1.6-2.5c0.6-0.8,1.1-1.6,1.7-2.4
		c0.6-0.8,1.1-1.3,1.6-1.8c0.2-0.2,0.3-0.3,0.5-0.3c0.2-0.1,0.3-0.1,0.5-0.1c0.2,0,0.4,0.1,0.4,0.3c0,0.1,0,0.1,0,0.2
		c0,0.1-0.1,0.1-0.1,0.2c-0.4,0.7-0.9,1.5-1.4,2.5c-0.5,1-1.1,2.1-1.7,3.2c-0.6,1.2-1.1,2.4-1.7,3.6c-0.5,1.2-1,2.5-1.4,3.6
		c0.8-0.9,1.8-1.8,2.9-2.8c1.1-1,2.2-1.9,3.4-2.8c1.2-0.9,2.4-1.7,3.6-2.5c1.2-0.7,2.4-1.3,3.5-1.8c0.1,0,0.2-0.1,0.3-0.1
		c0.1,0,0.2,0,0.3,0c0.3,0,0.6,0.1,0.8,0.3c0.2,0.2,0.4,0.5,0.4,0.9c0,0.2,0,0.4,0,0.7C67.8,33.2,67.8,33.4,67.8,33.7z M99.2,38.2
		c-1,1-2.1,2-3.3,3c-1.2,1-2.5,2-3.8,3c-1.3,1-2.5,1.8-3.7,2.6c-1.2,0.8-2.3,1.3-3.2,1.7c-0.8,0.4-1.5,0.5-2,0.5
		c-0.6,0-1-0.2-1.3-0.7c-0.3-0.5-0.4-1.2-0.4-2.2c0-0.3,0-0.8,0.1-1.3c0.1-0.5,0.2-1.1,0.3-1.7c0.1-0.6,0.3-1.1,0.4-1.7
		c0.1-0.5,0.3-0.9,0.4-1.2c-0.8,0.8-1.6,1.8-2.6,2.8c-1,1-1.9,2.1-3,3.2c-1,1.1-2.1,2-3.2,3c-1.1,0.9-2.2,1.7-3.2,2.3
		c-1.5,0.9-2.7,1.3-3.6,1.3c-0.6,0-1-0.2-1.4-0.5c-0.3-0.4-0.5-0.9-0.5-1.7c0-0.3,0-0.6,0.1-1c0.1-0.4,0.2-0.8,0.3-1.2
		c0.4-1.2,0.9-2.4,1.6-3.7c0.7-1.3,1.5-2.6,2.3-3.9c0.9-1.3,1.8-2.6,2.8-3.8c1-1.2,2-2.4,3.1-3.5c1-1.1,2.1-2,3-2.9
		c1-0.8,1.9-1.5,2.8-2c0.7-0.4,1.3-0.6,1.8-0.8c0.5-0.2,1-0.3,1.5-0.3c0.8,0,1.4,0.3,1.8,0.8c0.4,0.5,0.7,1.3,0.7,2.2v0.5
		c0,0.5-0.1,1-0.2,1.6c-0.1,0.5-0.3,1.1-0.5,1.7c0,0.1-0.1,0.2-0.2,0.2c-0.1,0.1-0.2,0.1-0.2,0.1c-0.3,0-0.4-0.1-0.4-0.5v-0.1
		c0.1-0.4,0.2-0.7,0.3-1.1c0.1-0.4,0.1-0.7,0.1-1.1c0-0.2,0-0.3,0-0.5c0-0.1,0-0.3-0.1-0.5c-0.2-0.9-0.7-1.3-1.4-1.3
		c-0.5,0-1.2,0.2-1.9,0.5c-0.9,0.4-1.8,1.1-2.7,2c-1,0.9-1.9,1.9-2.9,3c-1,1.1-1.9,2.3-2.8,3.6c-0.9,1.3-1.8,2.6-2.5,3.8
		c-0.7,1.3-1.4,2.5-1.9,3.6c-0.5,1.2-0.9,2.2-1,3c0,0.1,0,0.1,0,0.3c0,0.1,0,0.2,0,0.3c0,0.3,0.1,0.5,0.2,0.7
		c0.1,0.2,0.3,0.2,0.6,0.2c0.2,0,0.3,0,0.5-0.1c0.2-0.1,0.3-0.1,0.5-0.2c0.3-0.1,0.9-0.5,1.6-1c0.7-0.5,1.5-1.2,2.4-1.9
		c0.9-0.8,1.8-1.6,2.8-2.5c1-0.9,1.9-1.8,2.8-2.8c0.9-0.9,1.7-1.9,2.4-2.7c0.7-0.9,1.3-1.7,1.6-2.4c0.2-0.2,0.4-0.2,0.6-0.2
		c0.1,0,0.3,0,0.5,0.1c0.2,0.1,0.3,0.2,0.5,0.3c0.2,0.1,0.3,0.3,0.4,0.4c0.1,0.2,0.2,0.3,0.2,0.5c0,0.1,0,0.1,0,0.2
		c0,0,0,0.1-0.1,0.2c-0.2,0.4-0.5,1-0.8,1.7c-0.3,0.7-0.7,1.4-1,2.2c-0.3,0.7-0.6,1.5-0.9,2.2c-0.3,0.7-0.4,1.3-0.5,1.7v0.3
		c0,0.6,0.2,0.9,0.8,0.9c0.2,0,0.3,0,0.5,0c0.2,0,0.4-0.1,0.6-0.2c0.7-0.2,1.7-0.7,2.8-1.3c1.2-0.7,2.4-1.4,3.7-2.3
		c1.3-0.9,2.6-1.8,3.9-2.8c1.3-1,2.5-2,3.5-2.9c0.3-0.2,0.5-0.3,0.6-0.4c0.2,0,0.3,0,0.3,0.1c0.1,0.1,0.1,0.2,0,0.4
		C99.4,37.9,99.4,38.1,99.2,38.2z M129.8,38.1c-0.8,0.8-1.8,1.7-2.8,2.7c-1.1,1-2.2,1.9-3.4,2.9c-1.2,0.9-2.4,1.8-3.7,2.5
		c-1.3,0.8-2.5,1.3-3.7,1.7c-0.4,0.1-0.8,0.2-1.1,0.3c-0.4,0.1-0.7,0.1-1.1,0.1c-0.8,0-1.5-0.2-2.2-0.6c-0.6-0.4-1.1-1-1.5-1.7
		c-0.2-0.5-0.3-1-0.4-1.6c0-0.5-0.1-1-0.1-1.5c0-0.5,0-1-0.1-1.5c-0.1-0.5-0.2-1-0.5-1.6c-0.2-0.3-0.5-0.5-1-0.5
		c-0.3,0-0.7,0.1-1.1,0.2c-0.7,0.2-1.4,0.6-2.1,1c-0.7,0.4-1.5,0.9-2.2,1.3c-0.7,0.5-1.4,1-2,1.4c-0.6,0.5-1.2,0.9-1.7,1.3
		c-0.2,0.3-0.4,0.7-0.8,1.1c-0.3,0.5-0.7,0.9-1.1,1.4c-0.4,0.5-0.8,0.9-1.2,1.3c-0.4,0.4-0.8,0.7-1.1,0.8c-0.2,0.1-0.3,0.1-0.5,0.2
		c-0.2,0-0.3,0-0.5,0c-0.2,0-0.3,0-0.5-0.1c-0.1-0.1-0.2-0.2-0.2-0.3c0,0,0-0.1,0-0.2c0-0.1,0.1-0.1,0.2-0.2
		c0.8-1.1,1.5-2.1,2.1-3.1c0.6-1,1.1-1.9,1.6-2.8c0.4-0.9,0.8-1.8,1.1-2.7c0.3-0.9,0.5-1.8,0.6-2.7c0.1-0.3,0.3-0.6,0.5-0.9
		c0.2-0.3,0.4-0.5,0.7-0.8c0.3-0.2,0.5-0.4,0.8-0.5c0.3-0.1,0.5-0.2,0.7-0.2c0.2,0,0.4,0.1,0.6,0.2c0.1,0.1,0.2,0.3,0.3,0.6
		c0,0.1,0,0.2,0,0.4c0,0.1,0,0.2,0,0.4c0,1-0.2,2-0.6,3c-0.4,1-0.9,2-1.4,2.9c1.3-0.9,2.5-1.6,3.7-2.3c1.1-0.7,2.3-1.2,3.6-1.7
		c0.9-0.3,1.7-0.5,2.5-0.5c1.1,0,1.9,0.3,2.6,0.9c0.4,0.4,0.7,1,0.8,1.6c0.1,0.7,0.2,1.3,0.2,2V44v0.8c0.1,0.7,0.3,1.2,0.6,1.5
		c0.3,0.3,0.8,0.5,1.4,0.5c0.2,0,0.4,0,0.6-0.1c0.2-0.1,0.4-0.1,0.6-0.2c0.9-0.3,1.9-0.7,3-1.4c1.1-0.7,2.2-1.4,3.3-2.3
		c1.1-0.9,2.2-1.7,3.2-2.7c1-0.9,2-1.8,2.8-2.6c0.1-0.1,0.2-0.2,0.4-0.2c0.1,0,0.2,0,0.3,0.1c0.1,0.1,0.1,0.2,0.1,0.3
		C130.1,37.8,130,38,129.8,38.1z M162.3,3.2c-0.2,1.3-0.5,2.7-1.1,4.3c-0.6,1.6-1.3,3.2-2.2,4.9c-0.9,1.7-1.8,3.4-2.9,5.1
		c-1.1,1.7-2.1,3.4-3.2,5c-1.1,1.6-2.1,3.1-3.1,4.6c-1,1.4-1.9,2.7-2.7,3.8c-0.5,2.7-0.9,5.2-1.1,7.6c-0.2,2.4-0.3,4.6-0.3,6.7
		c0,1.2,0,2.3,0.1,3.4c0.1,1.1,0.2,2.1,0.3,3.1c0.1,1,0.3,1.8,0.4,2.6c0.2,0.8,0.4,1.4,0.6,1.9c0.2,0.5,0.4,0.9,0.6,1.2
		c0.2,0.3,0.4,0.5,0.6,0.6c0.2,0.1,0.4,0.2,0.6,0.3c0.2,0,0.4,0.1,0.5,0.1h0.3h0.2c0.2,0.1,0.3,0.2,0.5,0.3c0.1,0.2,0.2,0.3,0.2,0.5
		c0,0,0,0.1,0,0.2c0,0.1-0.1,0.1-0.1,0.2c-0.1,0.1-0.3,0.2-0.5,0.3c-0.2,0.1-0.4,0.1-0.6,0.1c-0.3,0-0.4,0-0.5-0.1
		c-1.3-0.7-2.3-1.8-3.1-3.1c-0.9-1.6-1.6-3.5-2-5.7c-0.4-2.2-0.6-4.7-0.6-7.3c0-1.4,0.1-2.8,0.2-4.1c0.1-1.4,0.3-2.8,0.5-4.2
		c-0.4,0.6-1,1.3-1.5,2.1c-0.6,0.8-1.2,1.6-1.9,2.5c-0.7,0.9-1.4,1.8-2.1,2.6c-0.7,0.9-1.5,1.7-2.3,2.6c-0.8,0.8-1.5,1.6-2.3,2.3
		c-0.8,0.7-1.5,1.3-2.2,1.8c-0.6,0.4-1.2,0.8-1.8,0.9c-0.6,0.2-1.1,0.3-1.6,0.3c-1,0-1.8-0.3-2.4-1c-0.6-0.7-0.9-1.5-0.9-2.6
		c0-0.6,0.1-1.2,0.3-1.8c0.4-1.5,1.1-2.9,1.9-4.3c0.8-1.3,1.9-2.6,3-3.7c1.2-1.1,2.5-2.1,4-3.1c1.5-0.9,3.1-1.7,4.8-2.5
		c0.4-0.2,0.7-0.3,1.1-0.3c0.4-0.1,0.7-0.1,1-0.1c0.2,0,0.3,0,0.5,0c0.2,0,0.3,0,0.4,0.1c0.4,0.1,0.5,0.3,0.5,0.6
		c0,0.1,0,0.2-0.1,0.3c-0.1,0.1-0.2,0.2-0.3,0.3c-0.2,0.2-0.5,0.3-0.7,0.4c-0.2,0.1-0.5,0.1-0.7,0.1c-0.2,0-0.5,0.1-0.7,0.1
		c-0.2,0.1-0.5,0.2-0.8,0.4c-1.2,0.7-2.4,1.5-3.5,2.3c-1.1,0.8-2.2,1.7-3.1,2.7c-1,1-1.8,2.1-2.6,3.3c-0.8,1.2-1.4,2.6-2,4.1
		c-0.1,0.3-0.2,0.6-0.3,0.9c-0.1,0.3-0.1,0.6-0.1,0.9c0,0.4,0.1,0.8,0.3,1.1c0.2,0.3,0.5,0.4,0.9,0.4c0.5,0,1.2-0.3,2.2-0.9
		c0.7-0.5,1.5-1.1,2.3-1.8c0.8-0.7,1.6-1.5,2.4-2.3c0.8-0.8,1.6-1.7,2.3-2.6c0.8-0.9,1.5-1.8,2.2-2.8c0.7-0.9,1.4-1.8,2-2.7
		c0.6-0.9,1.2-1.7,1.8-2.4c0.5-2.7,1.1-5.5,1.7-8.3c0.7-2.9,1.5-5.7,2.5-8.5c1-2.8,2.2-5.4,3.5-8c1.4-2.5,3-4.8,5-6.9
		c0.6-0.6,1.2-1.1,1.8-1.4c0.6-0.3,1.2-0.5,1.7-0.5c0.6,0,1.2,0.2,1.6,0.7c0.4,0.5,0.7,1.1,0.7,1.9V3.2z M161.1,2.9
		c0-0.4-0.1-0.8-0.3-1c-0.2-0.3-0.4-0.4-0.8-0.4c-0.5,0-1,0.3-1.6,0.9c-1,0.9-1.9,2-2.7,3.3c-0.8,1.3-1.6,2.7-2.3,4.3
		c-0.7,1.5-1.4,3.1-2,4.8c-0.6,1.7-1.2,3.3-1.7,5c-0.5,1.7-1,3.3-1.4,4.8c-0.4,1.6-0.8,3-1.1,4.3c0.7-1,1.5-2.1,2.4-3.4
		c0.9-1.3,1.8-2.7,2.8-4.2c1-1.5,1.9-3.1,2.8-4.7c0.9-1.6,1.8-3.2,2.6-4.7c0.8-1.5,1.5-3,2-4.4c0.6-1.4,1-2.7,1.2-3.8
		c0.1-0.1,0.1-0.2,0.1-0.3C161.1,3.2,161.1,3.1,161.1,2.9z M184.4,38.2c-1.1,1.1-2.3,2.2-3.6,3.2c-1.3,1-2.5,2-3.8,2.9
		c-1.3,1-2.6,1.9-3.8,2.8c-1.3,0.9-2.5,1.9-3.7,2.9c-1.1,2.8-2.3,5.5-3.5,8c-1.2,2.6-2.5,5.1-3.9,7.5c-1.4,2.4-3,4.7-4.7,6.9
		c-1.7,2.2-3.7,4.4-6,6.5c-0.3,0.3-0.7,0.6-1.1,0.7c-0.4,0.1-0.7,0.2-1,0.2c-0.5,0-0.9-0.2-1.2-0.5c-0.3-0.4-0.5-0.8-0.5-1.4
		c0-0.1,0-0.2,0-0.4c0-0.1,0-0.3,0.1-0.4c0.6-2.7,1.5-5.2,2.8-7.6c1.3-2.4,2.8-4.6,4.4-6.8c1.7-2.1,3.5-4.2,5.5-6.1
		c2-1.9,3.9-3.8,5.9-5.6c0.6-1.3,1.1-2.6,1.7-3.8c0.5-1.3,1-2.4,1.5-3.4c0.5-1.2,1-2.3,1.4-3.4c-0.7,0.5-1.4,1-2.3,1.7
		c-0.9,0.6-1.8,1.2-2.7,1.9c-1,0.6-1.9,1.2-2.9,1.8c-1,0.6-1.9,1-2.8,1.4c-1.4,0.6-2.5,0.9-3.4,0.9c-0.7,0-1.2-0.2-1.7-0.5
		c-0.4-0.3-0.7-0.7-0.9-1.2c-0.1-0.3-0.2-0.6-0.2-0.9c0-0.3-0.1-0.7-0.1-1c0-0.7,0.1-1.4,0.3-2.2c0.2-0.8,0.4-1.5,0.8-2.1
		c0.4-0.9,1-1.7,1.8-2.5c0.7-0.8,1.4-1.4,2.1-1.9c0.3-0.2,0.7-0.4,1.1-0.6c0.4-0.2,0.7-0.2,1-0.2c0.1,0,0.2,0,0.3,0.1
		c0.1,0.1,0.1,0.2,0.1,0.2c0,0,0,0.1,0,0.1c0,0,0,0.1-0.1,0.2c-0.2,0.4-0.5,0.7-0.8,1.1c-0.3,0.4-0.7,0.8-1.1,1.3
		c-0.5,0.7-0.9,1.6-1.2,2.6c-0.3,1-0.5,1.9-0.5,2.8c0,0.2,0,0.5,0.1,0.8c0.1,0.3,0.1,0.5,0.2,0.7c0,0.3,0.2,0.5,0.3,0.7
		c0.2,0.2,0.5,0.3,0.8,0.3c0.2,0,0.3,0,0.5-0.1c0.2,0,0.4-0.1,0.5-0.2c0.6-0.2,1.4-0.4,2.1-0.8c0.8-0.4,1.6-0.8,2.5-1.3
		c0.9-0.5,1.8-1.1,2.7-1.7c0.9-0.6,1.8-1.2,2.7-1.9c0.9-0.6,1.7-1.3,2.5-1.9c0.8-0.6,1.6-1.2,2.2-1.7c0.1-0.1,0.2-0.2,0.3-0.2
		c0.1,0,0.2,0,0.2,0c0.2,0,0.3,0.1,0.5,0.2c0.1,0.1,0.2,0.3,0.2,0.4c0,0.1,0,0.3-0.1,0.4c-0.2,0.2-0.4,0.4-0.5,0.5
		c-0.1,0.2-0.3,0.4-0.5,0.6c-0.5,1-0.9,2-1.3,2.8c-0.4,0.9-0.8,1.7-1.2,2.5c-0.4,0.8-0.7,1.6-1.1,2.3c-0.4,0.7-0.7,1.5-1.1,2.3
		c1-0.8,2-1.6,3.1-2.4c1.1-0.8,2.3-1.7,3.4-2.5c1.2-0.9,2.4-1.8,3.5-2.7c1.2-0.9,2.3-2,3.5-3c0.2-0.2,0.4-0.3,0.5-0.3
		c0.1,0,0.2,0,0.3,0.1c0.1,0.1,0.1,0.2,0,0.4C184.6,38,184.5,38.1,184.4,38.2z M165.7,53c-1.8,1.7-3.5,3.4-5.1,5
		c-1.6,1.6-3.1,3.3-4.5,5.1c-1.4,1.8-2.6,3.7-3.7,5.7c-1.1,2-2,4.3-2.6,6.7c-0.1,0.4-0.2,0.7-0.2,1.1c0,0.4,0.1,0.9,0.2,1.2
		c1.2-0.8,2.3-1.8,3.4-3c1.1-1.2,2.2-2.5,3.2-3.8c1-1.4,2-2.8,2.9-4.4c0.9-1.5,1.8-3.1,2.6-4.6c0.8-1.6,1.5-3.1,2.2-4.6
		C164.6,55.9,165.2,54.4,165.7,53z M262.4,9.4c0,0.3-0.1,0.6-0.4,0.9c-1,1.5-2,3.3-3.2,5.3c-1.2,2.1-2.3,4.3-3.5,6.6
		c-1.2,2.4-2.3,4.8-3.3,7.4c-1.1,2.6-2,5.1-2.9,7.6c-0.8,2.5-1.5,5-2,7.4c-0.5,2.4-0.7,4.6-0.7,6.6v0.8c0.2,0.4,0.5,0.7,0.8,0.8
		c0.1,0.1,0.2,0.2,0.4,0.3c0.1,0.1,0.3,0.2,0.5,0.3c0.2,0.1,0.3,0.2,0.3,0.3c0,0.1,0.1,0.3,0.1,0.4c0,0.3-0.1,0.5-0.3,0.8
		c-0.2,0.2-0.5,0.3-0.8,0.3c-0.3,0-0.8-0.2-1.3-0.5c-0.6-0.4-1-1-1.2-1.8c-0.3-0.8-0.4-1.8-0.4-2.9v-0.8c0-1.7,0.2-3.4,0.5-5.3
		c0.3-1.8,0.7-3.7,1.3-5.6c0.5-1.9,1.1-3.8,1.8-5.6c0.7-1.9,1.4-3.6,2.1-5.3c1.6-3.9,3.5-7.8,5.6-11.7c0.2-0.4,0.3-0.7,0.3-0.9
		c0-0.2-0.1-0.3-0.2-0.3c-0.2,0-0.6,0.2-1,0.5c-1.2,1-2.5,2.2-4,3.7c-1.5,1.4-3,3-4.6,4.7c-1.6,1.7-3.3,3.5-5,5.5
		c-1.7,2-3.5,4-5.3,6.1c-1.8,2.1-3.6,4.3-5.4,6.5c-1.8,2.2-3.5,4.5-5.2,6.7c-0.2,0.3-0.5,0.6-0.8,0.8c-0.3,0.2-0.6,0.3-0.8,0.3
		c-0.3,0-0.6-0.1-0.8-0.4c-0.2-0.2-0.3-0.6-0.4-1c0-0.2-0.1-0.4-0.1-0.6c0-0.2,0-0.4,0-0.5c0-0.7,0.1-1.5,0.2-2.3
		c0.1-0.8,0.3-1.7,0.5-2.5c0.3-1.1,0.6-2.2,1.1-3.4c0.4-1.2,0.9-2.4,1.4-3.6c0.5-1.2,1.1-2.5,1.7-3.7c0.6-1.2,1.2-2.4,1.8-3.6
		c0.6-1.2,1.3-2.3,1.9-3.4c0.6-1.1,1.2-2.1,1.8-3.1c0.6-1,1.1-1.8,1.6-2.7c0.5-0.8,0.9-1.5,1.3-2.1c0.1-0.1,0.1-0.2,0.1-0.2
		c0-0.1,0-0.1,0-0.2c0-0.1,0-0.2-0.1-0.3c-0.1-0.1-0.1-0.1-0.2-0.1c-0.1,0-0.2,0-0.3,0.1c-0.1,0-0.2,0.1-0.4,0.3
		c-1.5,1.1-3.2,2.5-5.1,4.1c-1.9,1.6-3.9,3.5-6,5.4c-2.1,2-4.3,4.1-6.5,6.3c-2.2,2.2-4.4,4.4-6.6,6.7c-2.1,2.2-4.2,4.5-6.1,6.6
		c-1.9,2.2-3.6,4.2-5.2,6.1c-0.2,0.1-0.4,0.2-0.6,0.3c-0.2,0.1-0.3,0.1-0.5,0.1c-0.3,0-0.5-0.1-0.7-0.3c-0.2-0.2-0.2-0.4-0.2-0.7
		v-0.1c0,0,0-0.1,0-0.1c0-0.1,0-0.1,0-0.1c0.2-0.7,0.4-1.4,0.6-2c0.2-0.7,0.5-1.3,0.8-2c0.3-0.6,0.6-1.3,1-2
		c0.4-0.7,0.7-1.4,1.1-2.1c1.7-3.3,3.6-6.4,5.6-9.4c2-3,3.9-5.7,5.8-8.4c0.9-1.3,1.8-2.6,2.7-3.8c0.9-1.2,1.7-2.4,2.4-3.5
		c0.8-1.1,1.5-2.2,2.1-3.2c0.6-1,1.2-2,1.7-3c0.5-1,0.7-1.7,0.7-2.3c0-0.6-0.2-1-0.7-1.4c-0.4-0.3-1.2-0.5-2.3-0.6
		c-0.2,0-0.5-0.1-0.7-0.1c-0.2,0-0.5,0-0.8,0c-1.5,0-2.9,0.1-4.3,0.3c-1.4,0.2-2.8,0.4-4.2,0.7c-1.4,0.3-2.8,0.5-4.2,0.7
		c-1.4,0.2-2.8,0.3-4.3,0.3c-0.8,0-1.5-0.1-2.2-0.2c-0.7-0.2-1.3-0.4-1.8-0.6c-0.5-0.3-0.9-0.6-1.1-0.9c-0.3-0.3-0.4-0.7-0.4-1.1
		c0-0.2,0-0.4,0.1-0.6c0.1-0.2,0.2-0.3,0.3-0.5c0.3-0.4,0.8-0.8,1.3-1.1c0.6-0.3,1.1-0.7,1.8-0.9c0.6-0.3,1.3-0.5,1.9-0.6
		c0.6-0.1,1.2-0.2,1.7-0.2c0.6,0,0.9,0.1,0.9,0.4c0,0.2-0.1,0.3-0.4,0.4c-0.4,0.1-0.7,0.2-1,0.2c-0.2,0.1-0.4,0.1-0.6,0.2
		c-0.2,0.1-0.3,0.1-0.4,0.2c-0.1,0.1-0.3,0.1-0.4,0.2c-0.5,0.2-0.8,0.6-0.8,1.1c0,0.3,0.1,0.6,0.4,0.9c0.3,0.3,0.8,0.5,1.4,0.6
		c1.3,0.1,2.6,0.2,3.9,0.1c1.3-0.1,2.6-0.2,4-0.4c1.3-0.2,2.7-0.3,4-0.5c1.3-0.1,2.6-0.2,3.9-0.2c0.3,0,0.6,0,0.9,0
		c0.3,0,0.6,0,0.8,0.1c1.7,0.1,2.9,0.5,3.6,1.1c0.7,0.7,1.1,1.5,1.1,2.5c0,0.8-0.2,1.7-0.5,2.6c-0.3,0.6-0.7,1.4-1.2,2.4
		c-0.5,1-1.2,2-2,3.2c-0.7,1.2-1.6,2.4-2.5,3.8c-0.9,1.3-1.9,2.7-2.9,4.2c-1,1.5-2,3-3,4.5c-1,1.5-2,3.1-2.9,4.6
		c-1,1.5-1.9,3-2.7,4.6c-0.9,1.5-1.6,2.9-2.3,4.3l-0.1,0.2v0.2c0,0.1,0,0.2,0.1,0.2c0.2,0,0.4-0.1,0.6-0.4c1.2-1.2,2.5-2.6,4-4
		c1.5-1.5,3.1-3,4.7-4.6c1.7-1.6,3.4-3.2,5.1-4.9c1.8-1.7,3.5-3.3,5.3-5c1.8-1.6,3.5-3.2,5.2-4.7c1.7-1.5,3.3-2.9,4.9-4.2
		c1.5-1.3,3-2.4,4.3-3.4c1.3-1,2.4-1.8,3.4-2.4c0.1-0.1,0.2-0.1,0.3-0.1c0.2,0,0.3,0.1,0.5,0.3c0.2,0.2,0.2,0.4,0.2,0.6
		c0,0.1,0,0.2,0,0.3c0,0.1-0.1,0.2-0.1,0.3c-1.7,2.7-3.5,5.5-5.1,8.2c-1.7,2.7-3.3,5.4-4.7,8.1c-1.5,2.7-2.8,5.3-3.9,7.9
		c-1.1,2.6-2,5.1-2.6,7.6c-0.1,0.2-0.2,0.5-0.2,0.7c0,0.2-0.1,0.4-0.1,0.6c0,0.2,0,0.4,0.1,0.5c0.1,0.1,0.2,0.2,0.3,0.2
		c0.1,0,0.2-0.1,0.3-0.2c0.2-0.1,0.4-0.4,0.7-0.7c1.8-2.2,3.9-4.8,6.4-7.7c2.4-2.9,5.1-6,8-9.2c2.9-3.2,6-6.4,9.3-9.5
		c3.3-3.2,6.7-6.1,10.3-8.8c0.4-0.3,0.8-0.5,1.1-0.5c0.2,0,0.4,0.1,0.5,0.2C262.4,9,262.4,9.2,262.4,9.4z M288.7,38.2
		c-1,1-2.1,2-3.3,3c-1.2,1-2.5,2-3.8,3c-1.3,1-2.5,1.8-3.7,2.6c-1.2,0.8-2.3,1.3-3.2,1.7c-0.8,0.4-1.5,0.5-2,0.5
		c-0.6,0-1-0.2-1.3-0.7c-0.3-0.5-0.4-1.2-0.4-2.2c0-0.3,0-0.8,0.1-1.3c0.1-0.5,0.2-1.1,0.3-1.7c0.1-0.6,0.3-1.1,0.4-1.7
		c0.1-0.5,0.3-0.9,0.4-1.2c-0.8,0.8-1.6,1.8-2.6,2.8c-1,1-1.9,2.1-3,3.2c-1,1.1-2.1,2-3.2,3c-1.1,0.9-2.1,1.7-3.2,2.3
		c-1.5,0.9-2.7,1.3-3.6,1.3c-0.6,0-1-0.2-1.4-0.5c-0.3-0.4-0.5-0.9-0.5-1.7c0-0.3,0-0.6,0.1-1c0.1-0.4,0.2-0.8,0.3-1.2
		c0.4-1.2,0.9-2.4,1.6-3.7c0.7-1.3,1.5-2.6,2.3-3.9c0.9-1.3,1.8-2.6,2.8-3.8c1-1.2,2-2.4,3.1-3.5c1-1.1,2.1-2,3.1-2.9
		c1-0.8,1.9-1.5,2.8-2c0.7-0.4,1.3-0.6,1.8-0.8c0.5-0.2,1-0.3,1.5-0.3c0.8,0,1.4,0.3,1.8,0.8c0.4,0.5,0.7,1.3,0.7,2.2v0.5
		c0,0.5-0.1,1-0.2,1.6c-0.1,0.5-0.3,1.1-0.5,1.7c0,0.1-0.1,0.2-0.2,0.2c-0.1,0.1-0.2,0.1-0.2,0.1c-0.3,0-0.4-0.1-0.4-0.5v-0.1
		c0.1-0.4,0.2-0.7,0.3-1.1c0.1-0.4,0.1-0.7,0.1-1.1c0-0.2,0-0.3,0-0.5c0-0.1,0-0.3-0.1-0.5c-0.2-0.9-0.7-1.3-1.4-1.3
		c-0.5,0-1.2,0.2-1.9,0.5c-0.9,0.4-1.8,1.1-2.7,2c-1,0.9-1.9,1.9-2.9,3c-1,1.1-1.9,2.3-2.8,3.6c-0.9,1.3-1.8,2.6-2.5,3.8
		c-0.7,1.3-1.4,2.5-1.9,3.6c-0.5,1.2-0.9,2.2-1,3c0,0.1,0,0.1,0,0.3c0,0.1,0,0.2,0,0.3c0,0.3,0.1,0.5,0.2,0.7
		c0.1,0.2,0.3,0.2,0.6,0.2c0.2,0,0.3,0,0.5-0.1c0.2-0.1,0.3-0.1,0.5-0.2c0.3-0.1,0.9-0.5,1.6-1c0.7-0.5,1.5-1.2,2.4-1.9
		c0.9-0.8,1.8-1.6,2.8-2.5c1-0.9,1.9-1.8,2.8-2.8c0.9-0.9,1.7-1.9,2.4-2.7c0.7-0.9,1.3-1.7,1.6-2.4c0.2-0.2,0.3-0.2,0.6-0.2
		c0.1,0,0.3,0,0.5,0.1c0.2,0.1,0.3,0.2,0.5,0.3c0.2,0.1,0.3,0.3,0.4,0.4c0.1,0.2,0.2,0.3,0.2,0.5c0,0.1,0,0.1,0,0.2
		c0,0,0,0.1-0.1,0.2c-0.2,0.4-0.5,1-0.8,1.7c-0.3,0.7-0.7,1.4-1,2.2c-0.3,0.7-0.6,1.5-0.9,2.2c-0.2,0.7-0.4,1.3-0.5,1.7v0.3
		c0,0.6,0.3,0.9,0.8,0.9c0.2,0,0.3,0,0.5,0c0.2,0,0.4-0.1,0.6-0.2c0.7-0.2,1.7-0.7,2.8-1.3c1.1-0.7,2.4-1.4,3.7-2.3
		c1.3-0.9,2.6-1.8,3.9-2.8c1.3-1,2.5-2,3.5-2.9c0.3-0.2,0.5-0.3,0.6-0.4c0.2,0,0.3,0,0.3,0.1c0.1,0.1,0.1,0.2,0,0.4
		C289,37.9,288.9,38.1,288.7,38.2z M321.2,3.2c-0.2,1.3-0.5,2.7-1.1,4.3c-0.6,1.6-1.3,3.2-2.2,4.9c-0.9,1.7-1.8,3.4-2.9,5.1
		c-1.1,1.7-2.1,3.4-3.2,5c-1.1,1.6-2.1,3.1-3.1,4.6c-1,1.4-1.9,2.7-2.7,3.8c-0.5,2.7-0.9,5.2-1.1,7.6c-0.2,2.4-0.3,4.6-0.3,6.7
		c0,1.2,0,2.3,0.1,3.4c0.1,1.1,0.2,2.1,0.3,3.1c0.1,1,0.3,1.8,0.4,2.6c0.2,0.8,0.4,1.4,0.6,1.9c0.2,0.5,0.4,0.9,0.6,1.2
		c0.2,0.3,0.4,0.5,0.6,0.6c0.2,0.1,0.4,0.2,0.6,0.3c0.2,0,0.4,0.1,0.5,0.1h0.3h0.2c0.2,0.1,0.3,0.2,0.5,0.3c0.1,0.2,0.2,0.3,0.2,0.5
		c0,0,0,0.1,0,0.2c0,0.1,0,0.1-0.1,0.2c-0.1,0.1-0.3,0.2-0.5,0.3c-0.2,0.1-0.4,0.1-0.6,0.1c-0.3,0-0.4,0-0.5-0.1
		c-1.3-0.7-2.3-1.8-3.1-3.1c-0.9-1.6-1.6-3.5-2-5.7c-0.4-2.2-0.7-4.7-0.7-7.3c0-1.4,0.1-2.8,0.2-4.1c0.1-1.4,0.3-2.8,0.5-4.2
		c-0.4,0.6-0.9,1.3-1.5,2.1c-0.6,0.8-1.2,1.6-1.9,2.5c-0.7,0.9-1.4,1.8-2.1,2.6c-0.7,0.9-1.5,1.7-2.3,2.6c-0.8,0.8-1.5,1.6-2.3,2.3
		c-0.8,0.7-1.5,1.3-2.2,1.8c-0.6,0.4-1.2,0.8-1.8,0.9c-0.6,0.2-1.1,0.3-1.6,0.3c-1,0-1.8-0.3-2.4-1c-0.6-0.7-0.9-1.5-0.9-2.6
		c0-0.6,0.1-1.2,0.3-1.8c0.4-1.5,1.1-2.9,1.9-4.3c0.8-1.3,1.9-2.6,3-3.7c1.2-1.1,2.5-2.1,4-3.1c1.5-0.9,3.1-1.7,4.8-2.5
		c0.4-0.2,0.7-0.3,1.1-0.3c0.3-0.1,0.7-0.1,1-0.1c0.2,0,0.3,0,0.5,0c0.2,0,0.3,0,0.4,0.1c0.4,0.1,0.5,0.3,0.5,0.6
		c0,0.1,0,0.2-0.1,0.3c-0.1,0.1-0.2,0.2-0.3,0.3c-0.2,0.2-0.5,0.3-0.7,0.4c-0.2,0.1-0.5,0.1-0.7,0.1c-0.2,0-0.5,0.1-0.7,0.1
		c-0.2,0.1-0.5,0.2-0.8,0.4c-1.2,0.7-2.4,1.5-3.5,2.3c-1.1,0.8-2.2,1.7-3.1,2.7c-1,1-1.8,2.1-2.6,3.3c-0.8,1.2-1.4,2.6-2,4.1
		c-0.1,0.3-0.2,0.6-0.3,0.9c-0.1,0.3-0.1,0.6-0.1,0.9c0,0.4,0.1,0.8,0.3,1.1c0.2,0.3,0.5,0.4,0.9,0.4c0.5,0,1.2-0.3,2.2-0.9
		c0.7-0.5,1.5-1.1,2.3-1.8c0.8-0.7,1.6-1.5,2.4-2.3c0.8-0.8,1.6-1.7,2.3-2.6c0.8-0.9,1.5-1.8,2.2-2.8c0.7-0.9,1.4-1.8,2-2.7
		c0.6-0.9,1.2-1.7,1.8-2.4c0.5-2.7,1.1-5.5,1.7-8.3c0.7-2.9,1.5-5.7,2.5-8.5c1-2.8,2.2-5.4,3.5-8c1.4-2.5,3-4.8,5-6.9
		c0.6-0.6,1.2-1.1,1.8-1.4c0.6-0.3,1.2-0.5,1.7-0.5c0.6,0,1.2,0.2,1.6,0.7c0.4,0.5,0.7,1.1,0.7,1.9V3.2z M320.1,2.9
		c0-0.4-0.1-0.8-0.3-1c-0.2-0.3-0.4-0.4-0.8-0.4c-0.5,0-1,0.3-1.7,0.9c-1,0.9-1.9,2-2.7,3.3c-0.8,1.3-1.6,2.7-2.3,4.3
		c-0.7,1.5-1.4,3.1-2,4.8c-0.6,1.7-1.2,3.3-1.7,5c-0.5,1.7-1,3.3-1.4,4.8c-0.4,1.6-0.8,3-1.1,4.3c0.7-1,1.5-2.1,2.4-3.4
		c0.9-1.3,1.8-2.7,2.8-4.2c0.9-1.5,1.9-3.1,2.8-4.7c0.9-1.6,1.8-3.2,2.6-4.7c0.8-1.5,1.5-3,2-4.4c0.6-1.4,1-2.7,1.2-3.8
		c0.1-0.1,0.1-0.2,0.1-0.3C320.1,3.2,320.1,3.1,320.1,2.9z M349,3.2c-0.2,1.3-0.5,2.7-1.1,4.3c-0.6,1.6-1.3,3.2-2.2,4.9
		c-0.9,1.7-1.8,3.4-2.9,5.1c-1.1,1.7-2.1,3.4-3.2,5c-1.1,1.6-2.1,3.1-3.1,4.6c-1,1.4-1.9,2.7-2.7,3.8c-0.5,2.7-0.9,5.2-1.1,7.6
		c-0.2,2.4-0.3,4.6-0.3,6.7c0,1.2,0,2.3,0.1,3.4c0.1,1.1,0.2,2.1,0.3,3.1c0.1,1,0.3,1.8,0.4,2.6c0.2,0.8,0.4,1.4,0.6,1.9
		c0.2,0.5,0.4,0.9,0.6,1.2c0.2,0.3,0.4,0.5,0.6,0.6c0.2,0.1,0.4,0.2,0.6,0.3c0.2,0,0.4,0.1,0.5,0.1h0.3h0.2c0.2,0.1,0.3,0.2,0.5,0.3
		c0.1,0.2,0.2,0.3,0.2,0.5c0,0,0,0.1,0,0.2c0,0.1,0,0.1-0.1,0.2c-0.1,0.1-0.3,0.2-0.5,0.3c-0.2,0.1-0.4,0.1-0.6,0.1
		c-0.3,0-0.4,0-0.5-0.1c-1.3-0.7-2.3-1.8-3.1-3.1c-0.9-1.6-1.6-3.5-2-5.7c-0.4-2.2-0.6-4.7-0.6-7.3c0-1.4,0.1-2.8,0.2-4.1
		c0.1-1.4,0.3-2.8,0.5-4.2c-0.4,0.6-0.9,1.3-1.5,2.1c-0.6,0.8-1.2,1.6-1.9,2.5c-0.7,0.9-1.4,1.8-2.1,2.6c-0.7,0.9-1.5,1.7-2.3,2.6
		c-0.8,0.8-1.5,1.6-2.3,2.3c-0.8,0.7-1.5,1.3-2.2,1.8c-0.6,0.4-1.2,0.8-1.8,0.9c-0.6,0.2-1.1,0.3-1.6,0.3c-1,0-1.8-0.3-2.4-1
		c-0.6-0.7-0.9-1.5-0.9-2.6c0-0.6,0.1-1.2,0.3-1.8c0.4-1.5,1-2.9,1.9-4.3c0.8-1.3,1.9-2.6,3.1-3.7c1.2-1.1,2.5-2.1,4-3.1
		c1.5-0.9,3.1-1.7,4.8-2.5c0.4-0.2,0.7-0.3,1.1-0.3c0.4-0.1,0.7-0.1,1-0.1c0.2,0,0.3,0,0.5,0c0.2,0,0.3,0,0.4,0.1
		c0.4,0.1,0.5,0.3,0.5,0.6c0,0.1,0,0.2-0.1,0.3c-0.1,0.1-0.2,0.2-0.3,0.3c-0.2,0.2-0.5,0.3-0.7,0.4c-0.2,0.1-0.5,0.1-0.7,0.1
		c-0.2,0-0.5,0.1-0.7,0.1c-0.2,0.1-0.5,0.2-0.8,0.4c-1.2,0.7-2.4,1.5-3.5,2.3c-1.1,0.8-2.2,1.7-3.1,2.7c-1,1-1.8,2.1-2.6,3.3
		c-0.8,1.2-1.4,2.6-2,4.1c-0.1,0.3-0.2,0.6-0.3,0.9c-0.1,0.3-0.1,0.6-0.1,0.9c0,0.4,0.1,0.8,0.3,1.1c0.2,0.3,0.5,0.4,0.9,0.4
		c0.5,0,1.2-0.3,2.2-0.9c0.7-0.5,1.5-1.1,2.3-1.8c0.8-0.7,1.6-1.5,2.4-2.3c0.8-0.8,1.6-1.7,2.3-2.6c0.8-0.9,1.5-1.8,2.2-2.8
		c0.7-0.9,1.4-1.8,2-2.7c0.6-0.9,1.2-1.7,1.8-2.4c0.5-2.7,1.1-5.5,1.7-8.3c0.7-2.9,1.5-5.7,2.5-8.5c1-2.8,2.2-5.4,3.5-8
		c1.4-2.5,3-4.8,5-6.9c0.6-0.6,1.2-1.1,1.8-1.4c0.6-0.3,1.2-0.5,1.7-0.5c0.6,0,1.2,0.2,1.6,0.7c0.4,0.5,0.7,1.1,0.7,1.9V3.2z
		 M347.8,2.9c0-0.4-0.1-0.8-0.3-1c-0.2-0.3-0.4-0.4-0.8-0.4c-0.5,0-1,0.3-1.7,0.9c-1,0.9-1.9,2-2.7,3.3c-0.8,1.3-1.6,2.7-2.3,4.3
		c-0.7,1.5-1.4,3.1-2,4.8c-0.6,1.7-1.2,3.3-1.7,5c-0.5,1.7-1,3.3-1.4,4.8c-0.4,1.6-0.8,3-1.1,4.3c0.7-1,1.5-2.1,2.4-3.4
		c0.9-1.3,1.8-2.7,2.8-4.2c0.9-1.5,1.9-3.1,2.8-4.7c0.9-1.6,1.8-3.2,2.6-4.7c0.8-1.5,1.5-3,2-4.4c0.6-1.4,1-2.7,1.2-3.8
		c0.1-0.1,0.1-0.2,0.1-0.3C347.8,3.2,347.8,3.1,347.8,2.9z M361,38.2c-0.5,0.5-1.2,1-1.8,1.6c-0.7,0.6-1.4,1.2-2.1,1.9
		c-0.8,0.7-1.5,1.3-2.3,2c-0.8,0.7-1.6,1.3-2.4,1.9c-0.8,0.6-1.5,1.1-2.3,1.5c-0.7,0.4-1.4,0.7-2,0.9c-0.7,0.3-1.5,0.4-2.3,0.4
		c-0.6,0-1.1-0.1-1.7-0.2c-0.5-0.1-1-0.4-1.5-0.6c-0.4-0.3-0.8-0.6-1.1-1.1c-0.3-0.4-0.5-1-0.6-1.5c0-0.2-0.1-0.3-0.1-0.5
		c0-0.2,0-0.4,0-0.6c0-0.8,0.1-1.6,0.4-2.4c0.3-0.8,0.6-1.6,1.1-2.3c0.4-0.7,1-1.4,1.6-1.9c0.6-0.5,1.2-0.9,1.9-1.2
		c0.1-0.1,0.1-0.1,0.2-0.1c0.1,0,0.1,0,0.2,0c0.2,0,0.4,0.1,0.6,0.2c0.2,0.1,0.2,0.3,0.2,0.4c0,0.1,0,0.2,0,0.2
		c0,0.1-0.1,0.1-0.1,0.2c-0.3,0.4-0.7,0.9-1,1.5c-0.3,0.6-0.6,1.2-0.8,1.8c-0.2,0.6-0.4,1.3-0.6,1.9c-0.1,0.7-0.2,1.3-0.2,1.9v0.3
		c0,0.8,0.3,1.4,0.7,1.8c0.4,0.5,1,0.7,1.7,0.7c0.6,0,1.2-0.1,1.9-0.4c0.5-0.2,1-0.4,1.7-0.8c0.6-0.4,1.3-0.8,2.1-1.4
		c0.7-0.5,1.5-1.1,2.3-1.7c0.8-0.6,1.5-1.2,2.2-1.8c0.7-0.6,1.4-1.2,2-1.7c0.6-0.5,1.1-1,1.5-1.4c0.2-0.2,0.4-0.3,0.6-0.3
		c0.2,0,0.3,0,0.3,0.1c0.1,0.1,0.1,0.2,0,0.4C361.3,38,361.2,38.1,361,38.2z M353.9,22.7c0,0.1,0,0.1,0,0.2c0,0.1,0,0.1-0.1,0.2
		c-0.1,0.5-0.3,0.9-0.7,1.1c-0.4,0.3-0.8,0.5-1.4,0.6c-0.1,0-0.3,0-0.5-0.1c-0.2-0.1-0.3-0.2-0.5-0.3c-0.2-0.1-0.3-0.3-0.4-0.5
		c-0.1-0.2-0.2-0.4-0.2-0.6c0-0.2,0.1-0.5,0.2-0.6c0.1-0.2,0.3-0.3,0.6-0.5c0.2-0.1,0.5-0.2,0.8-0.3c0.3-0.1,0.5-0.1,0.8-0.1
		c0.4,0,0.7,0.1,1,0.3C353.8,22.1,353.9,22.4,353.9,22.7z M385.1,38.1c-1.1,1-2.3,2-3.6,2.9c-1.3,0.9-2.7,1.7-4,2.5
		c-1.4,0.8-2.8,1.5-4.2,2.1c-1.4,0.6-2.8,1.2-4,1.6v0.5c0,0.9-0.2,1.7-0.6,2.4c-0.4,0.7-1.1,1.4-2,2c-0.5,0.3-1.1,0.6-1.8,0.8
		c-0.8,0.2-1.6,0.5-2.4,0.6c-0.9,0.2-1.7,0.3-2.6,0.4c-0.9,0.1-1.7,0.2-2.4,0.2c-0.3,0-0.7,0-1-0.1c-0.3,0-0.5-0.1-0.8-0.1
		c-0.3-0.4-0.5-0.8-0.5-1.2c0-0.2,0.1-0.4,0.2-0.7c0.1-0.2,0.3-0.5,0.6-0.7c0.5-0.4,1.2-0.8,2.1-1.2c0.9-0.4,1.9-0.9,2.9-1.3
		c1-0.4,2.1-0.8,3.1-1.2c1-0.4,1.9-0.7,2.6-1c-0.1-0.4-0.3-1-0.6-1.7c-0.2-0.7-0.5-1.5-0.7-2.3c-0.2-0.9-0.4-1.8-0.6-2.7
		c-0.2-1-0.3-1.9-0.3-2.9c0-0.5,0-0.9,0.1-1.4c0.1-0.5,0.2-0.9,0.3-1.4c-0.3,0.3-0.6,0.7-1,1.1c-0.4,0.4-0.7,0.8-1.1,1.2
		c-0.4,0.4-0.8,0.8-1.2,1.2c-0.4,0.4-0.8,0.7-1.2,1.1c-0.1,0.1-0.1,0.1-0.2,0.1c-0.1,0-0.2,0-0.2,0c-0.2,0-0.2-0.1-0.2-0.3
		c0-0.2,0-0.3,0.1-0.4c1.3-1.1,2.4-2.3,3.3-3.4c1-1.1,1.7-2.2,2.1-3.1c0.3-0.5,0.5-1.1,0.8-1.8c0.3-0.7,0.6-1.5,1-2.2
		c0.4-0.8,0.9-1.5,1.5-2.2c0.6-0.7,1.3-1.3,2.2-1.9c0.2-0.1,0.3-0.2,0.5-0.2c0.1,0,0.3-0.1,0.4-0.1c0.2,0,0.4,0.1,0.5,0.2
		c0.1,0.1,0.1,0.3,0.1,0.5v0.2c-0.3,1.2-0.8,2.3-1.6,3.5c-0.8,1.1-1.7,2.4-2.6,3.7c-0.3,0.9-0.6,1.7-0.7,2.6
		c-0.1,0.9-0.2,1.8-0.2,2.6c0,1,0.1,2,0.2,2.9c0.1,0.9,0.3,1.8,0.5,2.6c0.2,0.8,0.4,1.5,0.6,2.1c0.2,0.6,0.4,1.1,0.4,1.5
		c0.9-0.3,2-0.6,3.2-1.1c1.3-0.5,2.6-1.1,4-1.8c1.4-0.7,2.8-1.5,4.3-2.4c1.4-0.9,2.8-2,4.1-3.1c0.2-0.1,0.3-0.2,0.4-0.2
		c0.1,0,0.2,0,0.3,0.1c0.1,0.1,0.1,0.2,0.1,0.3C385.3,37.9,385.2,38,385.1,38.1z M367.1,48.8c0-0.2,0-0.3,0-0.4c0-0.1,0-0.2-0.1-0.4
		c-0.6,0.2-1.4,0.5-2.2,0.8c-0.8,0.3-1.7,0.7-2.5,1.1c-0.8,0.4-1.6,0.8-2.3,1.2c-0.7,0.4-1.3,0.9-1.7,1.3c0.4,0.1,0.8,0.2,1.2,0.2
		c0.4,0,0.8,0.1,1.2,0.1c0.8,0,1.7-0.1,2.5-0.3c0.8-0.2,1.6-0.4,2.2-0.7c0.6-0.3,1-0.7,1.3-1.2C367,49.9,367.1,49.4,367.1,48.8z
		 M409.8,38.2c-1.1,1.1-2.3,1.9-3.6,2.4c-1.3,0.5-2.8,0.8-4.3,0.8c-1.1,0-2.2-0.2-3.3-0.5c-1.1-0.4-2.2-0.9-3.4-1.7
		c-0.3,0.9-0.8,1.8-1.3,2.9c-0.6,1-1.2,2.1-1.9,3.1c-0.7,1-1.5,2-2.3,2.9c-0.8,0.9-1.7,1.6-2.5,2.2c-0.6,0.4-1.2,0.7-1.8,0.9
		c-0.6,0.2-1.1,0.3-1.6,0.3c-0.9,0-1.7-0.3-2.3-1c-0.6-0.7-0.9-1.6-0.9-2.9c0-0.3,0-0.7,0.1-1.1c0.1-0.4,0.1-0.8,0.2-1.2
		c0.3-1.4,0.8-2.9,1.6-4.3c0.7-1.5,1.6-2.8,2.6-4.1c1-1.3,2-2.4,3.1-3.4c1.1-1,2.2-1.7,3.3-2.3c0.4-0.2,0.7-0.3,1-0.4
		c0.3-0.1,0.6-0.1,0.9-0.1c0.7,0,1.3,0.2,1.7,0.6c0.4,0.4,0.6,0.9,0.6,1.6c0,0.2,0,0.4-0.1,0.7c0,0.2-0.1,0.5-0.3,0.8
		c0.4,0.8,0.8,1.5,1.4,2.2c0.6,0.7,1.2,1.3,1.9,1.9c0.7,0.5,1.5,1,2.3,1.3c0.8,0.3,1.7,0.5,2.7,0.5c1,0,1.9-0.2,2.8-0.7
		c0.9-0.5,1.7-1.1,2.5-1.8c0.2-0.2,0.4-0.3,0.5-0.3c0.2,0,0.3,0,0.4,0c0.1,0.1,0.1,0.2,0.1,0.3C410.1,37.8,410,38,409.8,38.2z
		 M394.8,32.9c0-0.7-0.3-1.1-0.9-1.1c-0.3,0-0.7,0.1-1.2,0.4c-0.8,0.5-1.7,1.2-2.6,2.2c-0.9,1-1.7,2.1-2.5,3.4
		c-0.8,1.3-1.4,2.6-2,3.9c-0.6,1.4-1,2.7-1.3,4c-0.1,0.2-0.1,0.5-0.1,0.7c0,0.2,0,0.4,0,0.6c0,1.4,0.5,2.1,1.5,2.1
		c0.3,0,0.7-0.1,1.1-0.4c0.5-0.3,1-0.7,1.5-1.1c0.5-0.5,1-1,1.6-1.6c0.5-0.6,1-1.2,1.5-1.9c0.5-0.7,0.9-1.3,1.3-2
		c0.4-0.7,0.7-1.3,1-1.9c0.3-0.6,0.5-1.2,0.7-1.7c-0.2-0.1-0.4-0.3-0.7-0.6c-0.2-0.3-0.4-0.6-0.6-0.9c-0.2-0.3-0.3-0.6-0.3-1
		c0-0.3,0-0.6,0.1-0.9c0.1-0.3,0.2-0.6,0.3-0.8c0.2-0.2,0.3-0.5,0.6-0.6c0.2-0.2,0.5-0.3,0.8-0.3c0.1-0.1,0.1-0.2,0.1-0.3
		C394.8,33.1,394.8,33,394.8,32.9z M438.3,38.8c-0.8,0.8-1.7,1.6-2.6,2.5c-1,0.9-2.1,1.8-3.2,2.7c-1.1,0.9-2.2,1.7-3.4,2.4
		c-1.2,0.7-2.3,1.3-3.5,1.6c-0.4,0.1-0.7,0.2-1,0.3c-0.3,0.1-0.7,0.1-1,0.1c-0.7,0-1.4-0.2-2-0.5c-0.6-0.4-1.1-0.9-1.4-1.6
		c-0.2-0.5-0.3-1-0.4-1.5c0-0.5-0.1-1-0.1-1.4c0-0.5,0-1-0.1-1.4c-0.1-0.5-0.2-1-0.5-1.5c-0.2-0.3-0.5-0.4-0.9-0.4
		c-0.3,0-0.6,0.1-1,0.2c-0.6,0.2-1.3,0.5-2,0.9c-0.7,0.4-1.4,0.8-2,1.2c-0.7,0.4-1.3,0.9-1.9,1.3c-0.6,0.5-1.1,0.9-1.6,1.2
		c-0.2,0.3-0.4,0.6-0.7,1c-0.3,0.4-0.6,0.9-1,1.3c-0.4,0.4-0.7,0.8-1.1,1.2c-0.4,0.4-0.7,0.6-1.1,0.8c-0.1,0.1-0.3,0.1-0.5,0.2
		c-0.2,0-0.3,0-0.5,0c-0.2,0-0.3,0-0.4-0.1c-0.1-0.1-0.2-0.2-0.2-0.3c0,0,0-0.1,0-0.2c0-0.1,0.1-0.1,0.2-0.2c0.7-1,1.4-2,1.9-2.9
		c0.6-0.9,1.1-1.8,1.5-2.7c0.4-0.9,0.7-1.7,1-2.5c0.3-0.8,0.4-1.7,0.5-2.5c0.1-0.3,0.3-0.6,0.5-0.9c0.2-0.3,0.4-0.5,0.7-0.7
		c0.2-0.2,0.5-0.4,0.7-0.5c0.2-0.1,0.5-0.2,0.7-0.2c0.2,0,0.4,0.1,0.5,0.2c0.1,0.1,0.2,0.3,0.3,0.5c0,0.1,0,0.2,0,0.3
		c0,0.1,0,0.2,0,0.3c0,0.9-0.2,1.9-0.6,2.8c-0.4,0.9-0.8,1.8-1.3,2.7c1.2-0.8,2.4-1.5,3.4-2.1c1.1-0.6,2.2-1.2,3.4-1.6
		c0.9-0.3,1.6-0.4,2.3-0.4c1,0,1.8,0.3,2.4,0.8c0.4,0.4,0.6,0.9,0.7,1.5c0.1,0.6,0.2,1.2,0.2,1.9v1.4V45c0.1,0.6,0.3,1.1,0.6,1.4
		c0.3,0.3,0.7,0.5,1.3,0.5c0.2,0,0.4,0,0.5-0.1c0.2,0,0.4-0.1,0.6-0.2c0.8-0.2,1.8-0.7,2.8-1.3c1-0.6,2-1.3,3-2.1c1-0.8,2-1.6,3-2.5
		c1-0.9,1.9-1.7,2.6-2.4c0.1-0.1,0.2-0.2,0.4-0.2c0.1,0,0.2,0,0.3,0.1c0.1,0.1,0.1,0.1,0.1,0.3C438.5,38.6,438.4,38.7,438.3,38.8z"
		/>
</g>
</svg>
