<?xml version="1.0" encoding="utf-8"?>
<!-- Generator: Adobe Illustrator 19.1.0, SVG Export Plug-In . SVG Version: 6.00 Build 0)  -->
<svg version="1.1" id="Layer_1" xmlns="http://www.w3.org/2000/svg" xmlns:xlink="http://www.w3.org/1999/xlink" x="0px" y="0px"
	 viewBox="0 0 200 200" style="enable-background:new 0 0 200 200;" xml:space="preserve">
<style type="text/css">
	.st0{fill:#FFFFFF;}
	.st1{fill:url(#SVGID_1_);}
	.st2{fill:#66665D;}
	.st3{fill:#DDBCB0;}
</style>
<g>
	<circle class="st0" cx="100" cy="100" r="100"/>
	<g>
		<linearGradient id="SVGID_1_" gradientUnits="userSpaceOnUse" x1="12.3202" y1="99.9991" x2="187.68" y2="99.9991">
			<stop  offset="0" style="stop-color:#CDA349"/>
			<stop  offset="0.227" style="stop-color:#E2C675"/>
			<stop  offset="0.4908" style="stop-color:#EDD6A1"/>
			<stop  offset="0.5102" style="stop-color:#ECD59E"/>
			<stop  offset="0.5521" style="stop-color:#EBD39A"/>
			<stop  offset="0.7239" style="stop-color:#E2C675"/>
			<stop  offset="0.8171" style="stop-color:#DBBA66"/>
			<stop  offset="1" style="stop-color:#CDA349"/>
		</linearGradient>
		<path class="st1" d="M100,187.7c-37.8,0-71.2-24.1-83.2-60C1.6,81.8,26.5,32.1,72.3,16.8c9-3,18.3-4.5,27.7-4.5
			c37.8,0,71.2,24.1,83.2,60c7.4,22.2,5.7,46-4.8,66.9c-10.5,20.9-28.5,36.5-50.7,43.9C118.6,186.2,109.3,187.7,100,187.7z M100,14
			c-9.2,0-18.3,1.5-27.1,4.4c-45,14.9-69.4,63.7-54.4,108.7C30.1,162.3,62.9,186,100,186c9.2,0,18.3-1.5,27.1-4.4
			c21.8-7.2,39.4-22.5,49.7-43.1c10.3-20.5,12-43.8,4.7-65.6C169.8,37.7,137.1,14,100,14z"/>
		<g>
			<path class="st2" d="M42.4,64.5L40.3,68L33,63.7l2.2-3.6c0.6-1,1.9-1.1,2.9-0.6c0.7,0.4,1.2,1.2,1.1,2.1c0.7-0.7,1.8-0.8,2.7-0.2
				C42.9,62,43.1,63.4,42.4,64.5z M34.4,63.2l2.4,1.5l1.4-2.3c0.4-0.6,0.1-1.5-0.5-1.9c-0.7-0.4-1.5-0.3-1.9,0.3L34.4,63.2z
				 M39.1,62.5l-1.6,2.6l2.5,1.5l1.5-2.5c0.4-0.7,0.1-1.6-0.5-1.9C40.4,61.7,39.5,61.8,39.1,62.5z"/>
			<path class="st2" d="M45.1,60.4l-6.7-5.3l2.3-2.9c0.9-1.2,2.7-1.2,3.7-0.3c0.9,0.7,1.3,2,0.9,3l3.8,0.4l-0.8,1l-3.6-0.4l-1.4,1.8
				l2.4,1.9L45.1,60.4z M42.7,57l1.6-2c0.6-0.7,0.3-1.7-0.5-2.3c-0.8-0.6-1.8-0.5-2.3,0.1l-1.6,2L42.7,57z"/>
			<path class="st2" d="M50.3,54l-3.4-8.6l0.6-0.6l8.4,3.7l-0.8,0.8l-2.5-1.1l-2.6,2.5l1,2.5L50.3,54z M48.1,46l1.6,3.9l2.2-2.2
				L48.1,46z"/>
			<path class="st2" d="M54.6,41.4l3.8,5.3l-0.9,0.6l-5-6.9l0.7-0.5l8.2,2.3l-3.9-5.4l0.9-0.6l5,6.9l-0.7,0.5L54.6,41.4z"/>
			<path class="st2" d="M65.9,41.5L61.9,34l2.6-1.4c2.4-1.3,4.5-0.2,5.6,1.9c1.2,2.3,0.5,4.5-1.7,5.7L65.9,41.5z M65,33.5l-1.7,0.9
				l3,5.8l1.7-0.9c1.7-0.9,2-2.7,1.2-4.3C68.3,33.3,66.7,32.6,65,33.5z"/>
			<path class="st2" d="M71.2,29.5l4,3.3l0.9-5.1l1.1-0.4L76,33.5l1.1,2.9l-1,0.4l-1.1-2.9l-4.9-3.9L71.2,29.5z"/>
			<path class="st2" d="M93.2,32.7l-1-6.5l-2.1,5.4l-0.6,0.1l-3.5-4.6l1,6.5l-1.1,0.2l-1.2-8.4l1.1-0.2l3.9,5l2.3-5.9l1.1-0.2
				l1.2,8.4L93.2,32.7z"/>
			<path class="st2" d="M96.3,32.4l3.5-8.5l0.9,0l3.5,8.5l-1.2,0l-1-2.5l-3.6,0l-1,2.5L96.3,32.4z M100.2,25.1l-1.6,3.9l3.1,0
				L100.2,25.1z"/>
			<path class="st2" d="M106.1,32.6l1.2-8.4l2.9,0.4c2.7,0.4,3.8,2.4,3.5,4.8c-0.4,2.6-2.2,4-4.7,3.7L106.1,32.6z M110.1,25.5
				l-1.9-0.3l-0.9,6.5l1.9,0.3c2,0.3,3.2-1,3.5-2.9C112.9,27.3,112,25.8,110.1,25.5z"/>
			<path class="st2" d="M115.6,34.1l2.4-8.2l2.8,0.8c2.6,0.8,3.4,3,2.8,5.2c-0.7,2.5-2.7,3.7-5.1,3L115.6,34.1z M120.5,27.7
				l-1.8-0.5l-1.8,6.3l1.8,0.5c1.9,0.5,3.3-0.5,3.8-2.3C123,29.8,122.3,28.2,120.5,27.7z"/>
			<path class="st2" d="M124.7,37.1l3.2-7.9l1,0.4l-3.2,7.9L124.7,37.1z"/>
			<path class="st2" d="M136.1,35c-0.1-0.6-0.7-1.4-1.7-1.8c-1.2-0.6-1.9-0.4-2.3,0.4c-0.4,0.8,0.1,1.3,1.3,2.4
				c1.4,1.2,2.1,2.1,1.4,3.5c-0.8,1.5-2.3,1.5-3.8,0.7c-1.2-0.6-2-1.5-2.5-2.7l0.9-0.6c0.2,0.7,1,1.8,2.1,2.4
				c1.1,0.6,1.9,0.5,2.3-0.3c0.4-0.9-0.2-1.5-1.4-2.6c-1.3-1.2-1.9-2-1.3-3.2c0.7-1.5,2.3-1.6,3.9-0.8c1,0.5,1.7,1.3,2,2.1L136.1,35
				z"/>
			<path class="st2" d="M137.7,38.7c1.3-1.9,3.9-2.6,5.8-1.2c2,1.4,2,4.1,0.8,5.8c-1.3,1.9-3.9,2.5-5.8,1.2
				C136.6,43.2,136.5,40.5,137.7,38.7z M139.1,43.8c1.5,1,3.4,0.3,4.3-1.1c1-1.4,0.9-3.4-0.5-4.4c-1.5-1-3.4-0.3-4.3,1.1
				C137.6,40.8,137.7,42.8,139.1,43.8z"/>
			<path class="st2" d="M149,44.4l-4.5,4.7l-0.8-0.7l5.8-6.2l0.6,0.6l-0.7,8.4l4.5-4.8l0.8,0.7l-5.8,6.2l-0.7-0.6L149,44.4z"/>
		</g>
		<g>
			<path class="st2" d="M32.6,131.2l-0.9,0.4l-2.2-5.3l7.9-3.2l2.2,5.2l-0.9,0.4l-1.8-4.2l-2.5,1.1l1.5,3.7l-0.8,0.3l-1.5-3.7
				l-2.7,1.1L32.6,131.2z"/>
			<path class="st2" d="M40.8,130.7l-4.8,6l7.6-1.1l0.6,1l-9.1,1.2l-0.5-0.8l5.6-7.3L40.8,130.7z"/>
			<path class="st2" d="M42.7,147.2l-0.8,0.6l-3.5-4.6l6.8-5.1l3.4,4.5l-0.8,0.6l-2.8-3.7l-2.2,1.7l2.4,3.2l-0.7,0.5l-2.4-3.2
				l-2.3,1.8L42.7,147.2z"/>
			<path class="st2" d="M49.4,146.4l-4.6,4.6l-0.8-0.8l6.1-6l0.6,0.6l-1,8.4l4.7-4.7l0.8,0.8l-6.1,6l-0.6-0.6L49.4,146.4z"/>
			<path class="st2" d="M61.4,155.6l-2.3-1.8l-4.6,6l-0.9-0.7l4.6-6l-2.3-1.8l0.6-0.8l5.5,4.3L61.4,155.6z"/>
			<path class="st2" d="M63.2,165.6l3.9-7.6l3.2,1.6c1.3,0.7,1.7,2.4,1,3.6c-0.6,1.2-2.1,2-3.5,1.3l-2.3-1.2l-1.4,2.7L63.2,165.6z
				 M66,162.5l2.2,1.1c0.8,0.4,1.7,0,2.1-0.9c0.5-0.9,0.2-1.9-0.6-2.3l-2.1-1.1L66,162.5z"/>
			<path class="st2" d="M71.5,169.5l3-8l1,0.4l-2.6,7.1l4.4,1.7l-0.3,0.9L71.5,169.5z"/>
			<path class="st2" d="M79.3,172.3l5.3-7.5l0.9,0.2l1.5,9.1l-1.1-0.3l-0.4-2.7l-3.5-0.8l-1.5,2.2L79.3,172.3z M84.8,166.1l-2.4,3.5
				l3,0.7L84.8,166.1z"/>
			<path class="st2" d="M91.6,168.2l-0.6,6.5l-1.1-0.1l0.7-8.5l0.8,0.1l4.7,7.1l0.6-6.6l1.1,0.1l-0.7,8.5l-0.9-0.1L91.6,168.2z"/>
			<path class="st2" d="M101.8,168.6l0.4,6.5l-1.1,0.1l-0.5-8.5l0.8-0.1l5.7,6.3l-0.4-6.6l1.1-0.1l0.5,8.5l-0.9,0.1L101.8,168.6z"/>
			<path class="st2" d="M112,174.1l-1.4-8.4l1.1-0.2l1.4,8.4L112,174.1z"/>
			<path class="st2" d="M116.1,166.7l1.8,6.3l-1,0.3l-2.3-8.2l0.8-0.2l6.9,5l-1.8-6.4l1-0.3l2.3,8.2l-0.9,0.2L116.1,166.7z"/>
			<path class="st2" d="M132.5,166.5c-0.4,1.1-1,1.8-1.9,2.2c-2.1,0.9-4.5-0.3-5.4-2.4c-0.9-2.1-0.2-4.6,1.9-5.5
				c1.5-0.7,2.8-0.4,3.7,0.4l-0.5,0.9c-0.9-0.7-1.9-0.8-2.8-0.3c-1.6,0.7-1.9,2.6-1.2,4.2c0.7,1.7,2.5,2.5,4.1,1.9
				c0.8-0.4,1.4-1.1,1.7-2.2l-0.5-1.1l-1.7,0.7l-0.3-0.7l2.5-1.1l1.7,3.9l-0.8,0.4L132.5,166.5z"/>
			<path class="st2" d="M140.9,157.4l0.5,0.7l-1.2,0.8l0.9,1.3l-0.8,0.5l-0.9-1.3l-1.2,0.8l-0.5-0.7l1.2-0.8l-0.9-1.3l0.8-0.5
				l0.9,1.3L140.9,157.4z"/>
			<path class="st2" d="M149.8,156.3l-5.9-6.1l2.1-2.1c2-1.9,4.3-1.5,5.9,0.2c1.8,1.9,1.8,4.2,0,5.9L149.8,156.3z M146.6,148.9
				l-1.3,1.3l4.6,4.7l1.3-1.3c1.4-1.4,1.2-3.1-0.1-4.5C149.8,147.7,148,147.5,146.6,148.9z"/>
			<path class="st2" d="M160,143.7l0.7,0.6l-3.6,4.5l-6.7-5.3l3.5-4.4l0.7,0.6l-2.9,3.6l2.2,1.7l2.5-3.1l0.7,0.6l-2.5,3.1l2.3,1.8
				L160,143.7z"/>
			<path class="st2" d="M159.5,133.7c-0.6,0.1-1.4,0.6-2,1.5c-0.7,1.1-0.6,1.9,0.2,2.4c0.8,0.5,1.4,0,2.4-1.1c1.3-1.3,2.3-2,3.6-1.2
				c1.4,0.9,1.3,2.4,0.4,3.9c-0.7,1.1-1.7,1.9-2.8,2.3l-0.5-0.9c0.7-0.2,1.9-0.8,2.5-1.9c0.6-1,0.6-1.9-0.1-2.3
				c-0.8-0.5-1.5,0.1-2.7,1.2c-1.3,1.3-2.1,1.8-3.3,1.1c-1.4-0.9-1.5-2.4-0.5-3.9c0.6-1,1.4-1.6,2.3-1.9L159.5,133.7z"/>
			<path class="st2" d="M167.1,133.7l-7.6-3.8l0.5-1l7.6,3.8L167.1,133.7z"/>
			<path class="st2" d="M170.3,123.3c0.5,1,0.6,1.9,0.2,2.8c-0.8,2.1-3.4,3-5.5,2.2c-2.1-0.8-3.4-3.1-2.6-5.2
				c0.6-1.5,1.7-2.3,2.9-2.4l0.2,1c-1.1,0.1-1.9,0.8-2.2,1.8c-0.6,1.6,0.5,3.2,2.1,3.8c1.7,0.6,3.6,0,4.2-1.6
				c0.3-0.9,0.2-1.8-0.4-2.8l-1.1-0.4l-0.6,1.7l-0.8-0.3l1-2.6l4,1.5l-0.3,0.9L170.3,123.3z"/>
			<path class="st2" d="M166.6,116.8l6.4,1.4l-0.2,1.1l-8.3-1.8l0.2-0.8l7.6-3.8l-6.5-1.4l0.2-1.1l8.3,1.8l-0.2,0.9L166.6,116.8z"/>
		</g>
		<path class="st3" d="M27.8,92c-3.3,0-3.3,5.1,0,5.1C31.1,97.2,31.1,92,27.8,92z"/>
		<path class="st3" d="M167.6,78.3c-3.3,0-3.3,5.1,0,5.1C170.9,83.5,170.9,78.3,167.6,78.3z"/>
		<path class="st3" d="M149.5,106.1c-3.2-1.1-6.6-1.3-9.7-1.5c-2.8-0.2-5.8-0.2-9-0.1c-1.8,0.1-3.6,0.3-5.3,0.6
			c1.7-0.8,3.6-1.4,5.2-1.9l0.7-0.2c1.9-0.6,3.9-1.2,5.9-1.5c0.6-0.1,1.3-0.2,2-0.2c2.6-0.3,5.6-0.6,7.5-2.5c1-1.1,1.3-2.8,0.7-4.4
			c-0.3-0.8-0.8-1.5-1.3-2.2c-0.7-1-1.6-1.8-1.4-3.1c0.2-1.2,0.9-2,1.8-2.8c0.1-0.1,0.2-0.2,0.4-0.3c0.8-0.7,1.4-1.4,1.7-2.1
			c0.8-1.6,0.8-3.5,0.8-5.1c0-2.8-0.5-5.1-1.4-6.8c-0.5-0.9-1.2-1.7-1.9-2.4l-0.1-0.1c-1.1-1.1-1.1-2.3-0.5-4c0-0.1,0-0.2-0.1-0.3
			c-0.1-0.1-0.2-0.1-0.3-0.1c0,0-0.1,0-0.1,0c-1.5,0.5-2.8,1.7-3.9,2.8c-0.2,0.2-0.4,0.3-0.5,0.5c-0.1,0.1-0.1,0.1-0.2,0.2
			c-0.5,0.4-0.9,0.8-1,1.5c0,0.1,0,0.2,0,0.3c-0.1,0.6-0.1,1.1-0.5,1.1c-0.4,0.1-0.8,0.1-1.2,0.1l-0.7,0c-0.6,0-1.2,0.1-1.8,0.3
			c-0.9,0.4-1.8,0.9-2.6,1.5c0.3-0.5,0.5-1,0.8-1.4c0.6-1,1.2-2,1.7-3.1c0.9-1.8,1.6-3.9,2-6c0.1-0.6,0-1-0.3-1.4
			c-0.3-0.4-0.9-0.6-1.7-0.6c-0.1,0-0.2,0-0.3,0c-0.4,0-1.1,0.1-1.7,0.3c-0.1-1.3-0.7-2.5-1.8-3.4c-0.5-0.4-1-0.7-1.6-0.7
			c-0.1,0-0.2,0-0.3,0c-0.5,0.1-0.9,0.6-1.2,1c-0.1,0.1-0.2,0.2-0.3,0.3c-0.7,0.7-1.9,1.5-3,1.5c-0.6,0-1.1-0.2-1.5-0.7
			c-0.4-0.5-0.7-1.1-1-1.7c-0.3-0.6-0.5-1.1-0.9-1.6c-0.6-0.8-1.7-1.3-2.8-1.3c-0.5,0-0.9,0.1-1.3,0.3c-0.9,0.3-1.7,0.9-2.4,1.4
			c-0.3,0.2-0.7,0.4-1,0.6c-0.5,0.3-1,0.4-1.6,0.6c0-0.2,0.1-0.6,0.1-0.9c0-0.1,0.1-0.2,0.1-0.3c0.1-0.7,0.2-1.5,0.3-2.3
			c0-1.6-0.8-2.7-1.5-3.5c-0.5-0.6-1.5-1.3-2.5-1.3c-0.2,0-0.5,0-0.7,0.1c-0.3,0.1-0.9,0.6-1,0.7c-0.6,0.5-1.3,1.6-2.1,1.6
			c-0.6,0-0.7-0.3-0.9-0.7c-0.1-0.2-0.2-0.4-0.3-0.6c-0.4-0.5-0.9-0.8-1.6-0.8c-0.3,0-0.7,0.1-1,0.2c-1,0.4-1,1.3-1.1,2.1
			c-0.1,1-0.2,1.6-1.2,1.6c-0.2,0-0.3,0.1-0.4,0.3c-0.1,0.7-0.4,0.7-0.4,0.7c-0.2,0-0.6-0.2-0.9-0.4L97.1,54
			c-0.5-0.3-1.5-0.7-2.2-0.6c-1.5,0.2-2.6,1.4-3.6,2.5c-0.2,0.2-0.4,0.4-0.5,0.6c-1,1-2.1,2.2-2.3,3.6c-0.1,0.5-0.1,1,0,1.5
			c-0.8-1.6-2.8-2.9-4.5-3.4c-0.5-0.1-1.1,0.1-1.7,0.3c-0.5,0.2-1,0.4-1.5,0.2c-0.4-0.2-0.7-0.6-1-1.1c-0.3-0.4-0.6-0.8-1-1.1
			c-0.6-0.4-1.4-0.6-2.2-0.6c-1.2,0-2.1,0.5-2.4,1.4c-0.1,0.3-0.1,0.6-0.2,0.9c0,0.4-0.1,0.8-0.3,1.1c-0.1,0.1-0.3,0.2-0.5,0.2
			c-0.1,0-0.1,0-0.2,0c-0.3,0.1-0.7,0.2-1,0.4c-0.3,0.1-0.6,0.3-0.8,0.4c-1.3,0.4-4,1.2-4,3.2c0,0.5,0.3,0.9,0.6,1.3l0.1,0.1
			c0.7,1,1.1,1.8,1.2,2.8c0.2,1.1-0.7,1.9-1.6,2.7c-0.5,0.4-1,0.9-1.3,1.4c-1.1,1.7-1.3,3.1-0.7,4.1c0.3,0.4,0.7,0.7,1.1,1
			c-1.2,0.2-2.5,0.7-3.1,1.7c-0.5,0.7-0.5,1.5-0.3,2.3c-2.6,0.4-6.9,2.7-8,5.6c-0.2,0.6-0.3,1.2-0.2,1.8c0.1,0.5,0.5,0.9,0.6,1.3
			c0.2,0.8-0.6,0.9-0.9,1.5c-0.5,0.9-0.4,2.1-0.3,3.1c0.1,1.7,0.6,3.5,1.5,5.7c0.7,1.7,1.7,3.3,2.9,4.6c1.4,1.5,3.2,2.7,4.9,3.9
			c0.4,0.2,0.7,0.5,1.1,0.7c0.3,0.2,0.5,0.4,0.8,0.6c-1-0.5-2.1-1.1-3.2-1.5c-0.7-0.3-1.4-0.4-2.1-0.6c-0.4-0.1-0.8-0.2-1.1-0.3
			c-1.2-0.3-2.4-1.1-3.2-2.1c-0.7-0.9-1.4-1.6-2.6-1.8c-1.2-0.1-1.4,0.9-1.7,1.7c-0.1,0-0.2,0-0.3-0.1c-0.3-0.1-0.5,0.1-0.6,0.3
			c-0.6,1.5-0.4,3,0.4,4.1c0,0.1,0,0.2,0,0.2c-0.2,0.2-0.5,0.3-0.7,0.5c-0.4,0.3-0.9,0.5-1.3,0.9c-0.8,0.8-0.8,2-0.6,2.9
			c0.2,1,0.8,1.6,1.4,2.3l0,0c0.4,0.4,0.8,0.8,1,1.3c0.2,0.3,0,0.6-0.3,1.1c-0.1,0.1-0.2,0.3-0.3,0.4c-0.5,0.8-0.2,1.7,0.8,2.4
			c0.3,0.2,0.6,0.2,0.8,0.2c0.1,0,0.2,0,0.3,0l0.3,0c0.6,0,1,0.2,1.6,0.6c0.1,0.1,0.2,0.1,0.2,0.2c0.3,1,0.7,1.9,1.1,2.8
			c0.4,0.9,0.8,1.7,1.1,2.7c0.3,0.9,0.4,1.8,0.6,2.6c0.3,1.6,0.6,3.2,1.5,4.7c2,3.1,5.8,5.1,9.8,5.1c0.3,0,0.5,0,0.8,0
			c4.1-0.3,7-3,9.8-5.7c0.4-0.4,0.9-0.8,1.3-1.2c0.8-0.7,1.6-1.4,2.4-2.1c1.2-1,2.4-2.1,3.6-3.2c-0.2,0.4-0.5,0.8-0.7,1.1
			c-0.6,1.2-1.1,2.6-1.1,4c0,1.6,1.2,2,2,3.1c0.8,1.1,0.8,2.5,1.8,3.5c0.9,0.9,2.3,1.5,3.4,2c1.1,0.4,2.3,0.7,3.4,0.9
			c0.8,0.1,1.7,0.2,2.5,0.2c1.9,0,3.6-0.3,5.2-0.9c0.6-0.2,1.5-0.6,2.1-1.1c0.6-0.5,0.8-1.3,1.5-1.6c0.6-0.2,1.3-0.3,1.9-0.3
			c1,0,1.7,0.7,2.5,1.1c0.8,0.3,1.7,0.7,2.6,1c0.9,0.3,1.8,0.4,2.9,0.4c1.3,0,2.6-0.2,4.4-0.6c2.2-0.5,3.9-1.6,5.2-3.2
			c0.6-0.8,1.1-1.7,1.6-2.6c0.2-0.4,0.3-0.8,0.5-1.2c0.2-0.4,0.5-1.6,0.9-1.7c0,0,0.4,0.4,0.5,0.4c0.3,0.1,0.8,0.1,1,0
			c0.9-0.3,1.6-2,2-2.7c0.5-1,0.7-2.1,0.6-3.4c-0.1-0.8-0.1-1.4,0.4-2c0.2-0.2,0.4-0.4,0.6-0.6c0.1-0.1,0.2-0.2,0.3-0.2
			c0.5-0.4,0.8-1,1-1.6c0.3-0.1,0.5-0.4,0.7-0.8c0.3,0.1,0.6,0.1,0.9,0.1c1.7,0,3.2-1,3.8-1.4c1.1-0.8,2.1-1.8,3-2.7
			c0.8-0.8,1.8-1.3,2.9-1.7l0.3-0.2c1.5-0.7,2.7-1.7,3.9-2.7c0.7-0.6,1.3-1.1,1.8-1.6l0.1-0.1c0.3-0.2,0.6-0.5,0.6-1
			C153.9,107.5,150.6,106.5,149.5,106.1z M145.7,93c0.3,0.3,0.5,0.7,0.8,1.1c0.6,1,0.7,2.1,0.4,3.2c-0.5,1.6-2.5,2.3-4.1,2.7
			c-1.2,0.3-2.4,0.5-3.6,0.6l-0.6,0.1c-1.5,0.2-2.8,0.5-4.4,1l-0.5,0.1c-3.6,1-7.4,2-10.5,4.1c-2.3,0.7-4.4,1.7-6.5,2.8
			c1.5-1,2.8-2.2,4.1-3.4c0.6-0.6,1.3-1.2,1.9-1.9c1.1-1.1,2.2-2.3,3.5-3.2c0.9-0.6,2-0.9,3.1-1.1c0.4-0.1,0.9-0.1,1.4-0.1
			c0.4,0,0.7,0,1.1,0c1.6-0.1,2.6-1.9,3-3.5c0-0.1,0.1-0.2,0.1-0.3c0.2-0.8,0.4-1.6,1.1-1.8c0.5-0.1,1.2,0.3,1.8,0.6
			c0.2,0.1,0.4,0.2,0.6,0.3c1.6,0.8,3.2,0.8,4.6-0.1c1.2-0.8,1.4-2,1.5-3.3c0-0.2,0-0.4,0.1-0.6c0.1,0.4,0.3,0.8,0.5,1.3
			C145,92,145.4,92.5,145.7,93z M72.4,85.4c0-0.2-0.1-0.4-0.1-0.6c-0.1-0.3-0.1-0.5-0.1-0.8c0-0.8,0.7-1.4,1.1-1.7
			c0.5-0.3,0.9-0.3,1.4-0.3c0.2,0,0.4,0,0.7,0c0.2,0,0.3-0.1,0.4-0.1c0,0,0,0,0,0c0,0,0,0,0.1,0c0.1,0,0.1-0.1,0.1-0.1c0,0,0,0,0,0
			c0.5-0.5,0.5-1.3,0.5-1.9l0-0.1c0-0.6-0.4-1.1-0.7-1.5l-0.1-0.1c-0.3-0.5-0.5-0.9-0.4-1.3c0-0.2,0.2-0.4,0.4-0.5
			c0.2-0.1,0.6-0.2,1-0.2c0.2,0,0.4,0,0.6-0.1c0.9-0.2,1.5-0.8,2.1-1.3c0.6-0.6,1.2-1.1,1.9-1.2c1.3-0.2,3.2,0.7,4.3,1.9
			c0,0,0,0,0,0c0.2,0.6,0.4,1,0.8,1.4c0.1,0.2,0.1,0.4,0.1,0.5c-0.9,0.7-1.7,1.5-2.4,2.3c-0.2-0.1-0.5-0.1-0.7-0.1
			c-1.4,0-2.8,1.5-3.5,2.4c-1.7,2.1-2.1,4-1.4,5.8c0,0,0,0.1,0.1,0.1c0,0,0,0,0,0c-0.1,0.1-0.1,0.2,0,0.3c0.4,1.2,0.9,2.3,1.3,3.5
			c1,2.6,2.1,5.3,2.7,8.1c0.1,0.5,0.2,1.1,0.3,1.6c0.6,3.1,1.2,6.3,3.1,9.1c0.8,1.1,1.7,2.1,2.7,2.9c-3.8-1.2-7.4-2.8-8.7-6.6
			c-0.3-1-0.5-2-0.7-3.1c-0.2-1.1-0.4-2.3-0.9-3.4c-0.8-2-2.4-3.2-3.7-4c-0.5-0.3-1-0.6-1.5-0.8c-1.1-0.6-2.3-1.2-3.2-2
			c-0.7-0.7-1-1.6-1.2-2.4c-0.2-1,0.4-1.3,1.3-1.6C71.8,88.7,72.7,87.2,72.4,85.4z M89.5,65.3c0-0.2,0.1-0.4,0.2-0.5
			c0.1,0,0.2-0.1,0.2-0.1c0,0,0,0,0,0c0.1,0,0.2-0.1,0.4-0.1c0.2,0,0.4,0,0.5,0.1c0.2,0.1,0.5,0.2,0.7,0.2c0.7,0.3,1.5,0.5,2.2,0.5
			c0.8-0.1,1.6-0.6,2.3-1c0.4-0.2,0.7-0.5,1-0.6c0.1,0,0.2-0.1,0.2-0.2c0-0.1,0-0.2,0-0.3c-0.2-0.4-0.2-0.9-0.2-1.3
			c0-0.1,0-0.1,0-0.2c2.4,0.7,3.9,2,4.4,3.9c0,0.1,0.1,0.2,0.1,0.4c0.1,0.6,0.3,1.6,0.9,2c-0.3,0-0.6,0-0.9-0.1
			c-1.1-0.1-2.1,0.2-2.9,0.8c-2.1,1.7-2.5,4.4-2.4,6.7c-0.3-0.6-0.8-1.1-1.4-1.4c-0.3-0.2-0.7-0.2-1.1-0.2c-0.9,0-1.9,0.4-2.6,0.7
			c-1.3,0.6-2.6,1.3-3.7,2.1c-0.2-0.8-0.7-1.5-1.2-2.1c-0.2-0.5-0.4-1-0.7-1.5c-0.2-0.3-0.5-0.7-0.7-1c-0.7-1-1.3-1.9-1.9-3
			c-0.5-0.9-0.1-1.8,0.4-2.4c0,0,0,0,0.1,0c0.2,0,0.4,0.1,0.7,0.2c0.1,0.1,0.2,0.1,0.3,0.1c0.3,0.1,0.6,0.1,0.9,0.1h0.1
			c0.2,0,0.4,0,0.5,0c0.2,0,0.5,0.1,0.7,0.1c0.4,0.1,0.8,0.2,1.2,0.2c0.7,0,1.4-0.3,1.7-1c0.1-0.3,0.1-0.5,0.1-0.8
			C89.5,65.4,89.5,65.3,89.5,65.3z M125.1,77.9l0.1,0.3c1.3,2.5,2.7,5.3,2.4,8.2c0,0.1,0,0.2,0.1,0.2c0,0,0.1,0,0.1,0.1
			c-0.4,2.2-0.9,4.3-1.8,6.4c-1.8,4.6-5,8.5-7.8,11.7l-0.3,0.4c-0.3,0.3-0.6,0.7-0.9,1c0.4-0.9,0.8-1.9,1.1-3
			c0.2-0.8,0.4-1.7,0.5-2.6c0.3-0.7,0.6-1.4,0.8-2c0.2-0.5,0.4-1,0.6-1.5c0.3-0.6,0.4-1.3,0.4-1.9c0-0.6-0.5-1.1-0.9-1.5l-0.1-0.1
			c-0.2-0.2-0.3-0.4-0.3-0.6c0-0.3,0.3-0.6,0.7-1c0.4-0.4,0.5-0.8,0.4-1.3c-0.2-1-0.6-2-1-2.9c-0.4-0.9-0.8-1.8-0.9-2.8
			c-0.3-1.6,0.1-3.1,0.6-4.9c0.3-1.2,0.6-2.5,0.7-3.9c0.1-1.1,0.3-2.3,0.8-3.5c0.5-1.1,1.2-1.6,2.5-1.7
			C122.9,73.4,124,75.8,125.1,77.9z M119.2,74.1c-0.2,0.7-0.3,1.4-0.4,2.1c-0.1,0.5-0.1,1-0.2,1.5c-0.1,0.7-0.4,1.5-0.6,2.2
			c-0.3,0.9-0.5,1.8-0.7,2.7c-0.3,1.7,0,3.5,0.8,5.3c0.1,0.1,0.1,0.3,0.2,0.5c0.4,0.7,1.2,2.3,0.8,2.7c-0.1,0.1-0.2,0.2-0.3,0.3
			c-0.3,0.3-0.6,0.6-0.8,1.1c-0.2,0.7,0.3,1.3,0.5,1.5c0.1,0.1,0.2,0.2,0.3,0.3c0.3,0.3,0.5,0.5,0.5,0.9c0,0.5-0.2,0.9-0.4,1.4
			c-0.1,0.3-0.3,0.7-0.4,1c-0.1-1.4-0.4-2.7-0.8-4.1c-0.1-0.3-0.2-0.5-0.3-0.8c-0.2-0.5-0.3-1-0.5-1.4c-0.2-0.9-0.7-1.5-1.1-2.2
			l-0.2-0.3c-0.3-0.5-0.7-1-1.1-1.5c-0.7-0.8-1.3-1.6-1.7-2.6c-1.1-3.3,0.3-6.6,1.9-9.6c0,0,0,0,0,0c0.1-0.1,0.1-0.3,0-0.4
			c-0.1-0.2-0.5-0.3-0.6-0.1c-0.5,0.5-1.1,0.9-1.6,1.2c0.7-1.8,2-3,3.9-3.9c1.2-0.5,2.6-0.8,3.9-1c0.2,0,0.4-0.1,0.6-0.1
			C119.9,71.8,119.4,73.5,119.2,74.1z M111.5,76.1c0,0.1,0,0.2,0,0.3c-0.2,0.1-0.5,0.2-0.7,0.4c-1,0.5-1.9,1.6-3.1,1.5
			c-1.2-0.1-2.3-0.9-3.2-1.6c-0.4-0.3-0.8-0.5-1.3-0.8c-0.6-0.3-1.3-0.4-2.2-0.3c-0.3,0.1-0.6,0.2-0.8,0.4c-0.2,0.2-0.4,0.3-0.6,0.3
			l-0.4,0c-0.8,0.1-1.7,0.2-2.5,0.4c0-0.3,0-0.5,0-0.8c0-0.9,0-1.9,0.1-2.8c0.2-1.4,1-2.9,2.2-4c0.5-0.5,1.2-0.7,2-0.7
			c0.6,0,1.2,0.1,1.9,0.2c0.6,0.1,1.1,0.2,1.6,0.2c0.3,0,0.5,0,0.8,0c2.3,0,5.4,0.1,6.8,1.6c0.5,0.6,0.8,1.4,0.7,2.4
			c0,0.1,0,0.1,0,0.2C112.3,73.9,111.8,74.9,111.5,76.1z M96.6,98.3c-0.4-0.6-1-1.4-1.7-1.6c-0.3-0.1-0.7-0.2-1-0.2
			c0,0-0.1-0.1-0.1-0.1l-0.2-0.3c-0.4-0.5-0.8-1-1.2-1.4c-0.5-0.5-1-1.2-0.8-1.5c0-0.1,0.1-0.1,0.3-0.1c0.6,0,1.7,0.6,2.2,1.1
			c0.4,0.4,0.8,0.7,1.3,1.1c0.1,0.1,0.3,0.2,0.4,0.4c0.2,0.3,0.4,0.5,0.6,0.8l0.2,0.3c0.5,0.7,1,1.3,1.4,2c0.1,0.1,0.2,0.3,0.3,0.4
			c0.1,0.1,0.2,0.3,0.3,0.4c0.1,0.2,0.1,0.3,0.2,0.4c0,0.1,0.1,0.1,0.1,0.1c-0.3,0.1-0.6,0-1-0.2C97.1,99.6,96.9,98.9,96.6,98.3z
			 M84.9,80.2c1.6-1.6,3.5-3.2,5.6-4.4c1.4-0.8,2.5-1.1,3.6-1c1.1,0.1,1.4,0.9,1.7,1.9c0.1,0.2,0.1,0.4,0.2,0.6
			c-0.2,0.1-0.4,0.2-0.6,0.3C94.6,78,94,78.9,94,79.8c-0.3-0.2-0.7-0.1-0.9,0.2c0,0.1-0.1,0.1-0.1,0.2c-0.1,0.2-0.2,0.3-0.2,0.3
			c0,0-0.1,0-0.2-0.1c-0.1-0.1-0.3-0.2-0.4-0.2c-0.2-0.1-0.3-0.2-0.5-0.3c-0.3-0.1-0.6-0.2-0.9-0.2c-0.6,0-1.2,0.2-1.5,0.3
			c-1.5,0.5-2.3,1.9-3.1,3.2c-0.2,0.3-0.3,0.5-0.5,0.8c-1.1,1.7-2,3.2-2.1,5.3c0,1.7,0.6,3.5,2.1,5.4c-0.1,0-0.2,0-0.3,0.1
			c-0.8,0.2-1-0.3-1.2-1.1c-0.1-0.3-0.2-0.6-0.3-0.9c-0.2-0.4-0.3-0.7-0.5-1.1c-0.3-0.7-0.6-1.4-1.2-2c-0.4-0.4-0.8-0.6-1.2-0.7
			c-0.5-0.2-1-0.4-1.3-0.9c-0.6-1-0.7-2.1-0.3-3.3c0.3-0.8,1-1.7,2-2.7c0.8-0.8,1.9-1.2,2.9-1c0,0,0.1,0,0.1,0
			c0.2,0,0.4-0.1,0.5-0.3C85,80.5,85,80.3,84.9,80.2z M84.9,92c-0.4-1.1-0.6-2.2-0.5-3.4c0.2-1.5,0.9-2.7,1.8-4
			c0.2-0.4,0.5-0.7,0.7-1.1c0.4-0.7,0.9-1.5,1.5-2.1c0.5-0.5,1.4-1,2.2-1c0.3,0,0.6,0.1,0.8,0.2c0.1,0.1,0.3,0.2,0.4,0.3
			c0.6,0.5,1.6,0.8,2.3,0.4c0.9-0.5,0.4-2,1-2.7c0.4-0.5,1.1-0.8,1.8-1c0.6-0.2,1.2-0.3,1.8-0.4l0.1,0c0.1,0,0.2,0,0.4,0
			c0.4,0,0.9-0.1,1.2-0.4c0.7-0.6,1.2-0.7,2.1-0.6c0.5,0.1,1,0.5,1.5,0.9c0.2,0.1,0.3,0.2,0.4,0.3l0.1,0.1c0.6,0.4,1.1,0.8,1.8,1.1
			c0.4,0.2,0.8,0.3,1.2,0.5c0.1,0,0.2,0.2,0.2,0.4c-0.5-0.3-1.2-0.3-1.7-0.1c-1,0.2-1.3,1-1.6,1.6c-0.1,0.2-0.1,0.3-0.2,0.5
			c-0.2,0.3-0.3,0.6-0.4,1c-0.1-1.2-0.4-2.4-1.1-3c-0.4-0.3-0.9-0.5-1.5-0.3c-1.6,0.3-2.4,2.9-2.7,3.7c-0.1,0.2-0.1,0.4-0.2,0.7
			c-0.3-1-0.9-1.9-1.9-2.1c-1-0.2-1.6,0.1-1.9,0.4c-0.8,0.8-0.9,2.5-0.7,4.3c0-0.1-0.1-0.2-0.1-0.2c-0.1-0.3-0.2-0.6-0.3-0.8
			c-0.4-0.9-1.1-1.7-1.9-2c-0.6-0.2-1.2-0.2-1.7,0.1c-2,0.9-0.8,3.7,0,5.5c0.2,0.4,0.3,0.7,0.4,1c-0.6-0.5-1.2-1-1.8-1.2
			c-0.6-0.3-1.2-0.3-1.7-0.1c-0.4,0.2-0.8,0.6-1,1.1c-0.4,1.2,0.1,2,0.7,2.7c0.3,0.4,0.5,0.9,0.8,1.3c0.2,0.4,0.4,0.8,0.7,1.2
			c-0.1,0-0.1-0.1-0.2-0.1c-0.6-0.2-1.5-0.2-2-0.7C85.4,93.3,85.2,92.6,84.9,92z M97.7,90.5c-0.4-0.5-0.8-0.9-1.3-1.3
			c-0.3-0.2-0.7-0.4-1-0.5c0,0,0-0.1,0-0.1l-0.1-0.4c-0.2-1.2-1-4.9,0-5.8c0.1-0.1,0.3-0.3,1-0.2c1.3,0.3,1.6,2.5,1.7,4.1
			c0,0.3,0.1,0.6,0.1,0.8c-0.2,0.2-0.5,0.4-0.6,0.7C97.1,88.6,97.4,89.6,97.7,90.5z M93.6,92.7c0,0,0,0.1,0.1,0.1
			c-0.2-0.1-0.4-0.2-0.6-0.3c0-0.1-0.1-0.2-0.1-0.3c0,0,0,0,0,0c-0.7-0.6-1.4-1.7-1.7-2.7c-0.1-0.3-0.3-0.8-0.5-1.3
			c-0.9-2-1.5-3.7-0.4-4.3c0.4-0.2,0.7-0.2,1-0.1c0.5,0.2,1,0.8,1.4,1.5c0.1,0.3,0.2,0.5,0.3,0.8c0.3,0.9,0.7,1.8,1.3,2.6
			c-0.6,0.2-1,0.6-1.2,1.2C92.8,91.1,93.3,92,93.6,92.7z M91.7,95.4c0.3,0.3,0.6,0.7,0.9,1c-1.4-0.4-2.8-0.9-3.6-2.2
			c-0.3-0.4-0.5-0.8-0.7-1.2c-0.3-0.5-0.5-1-0.9-1.5c-0.5-0.7-0.8-1.2-0.6-1.9c0.1-0.3,0.3-0.5,0.5-0.5c0.3-0.1,0.6-0.1,1,0.1
			c1.1,0.4,2,1.4,2.8,2.4c0.2,0.2,0.4,0.4,0.6,0.6c-0.3,0.1-0.6,0.2-0.8,0.5C90,93.8,91.4,95.2,91.7,95.4z M99.4,99.4
			c0-0.1-0.1-0.2-0.1-0.3c-0.3-0.6-0.7-1.2-1.1-1.8c-0.2-0.3-0.3-0.5-0.5-0.7c-0.3-0.5-0.8-1-1.4-1.6c-0.7-0.9-1.4-1.7-1.8-2.6
			c-0.4-0.8-0.6-1.4-0.4-2.1c0.1-0.3,0.3-0.5,0.6-0.6c0.4-0.1,0.8,0,1.2,0.3c0.8,0.6,1.4,1.3,1.9,2c0.2,0.3,0.4,0.5,0.6,0.8
			c0.3,0.4,0.6,0.8,0.8,1.2c0,0.1,0.1,0.1,0.1,0.2l0.3,0.7c0,0.7,0.1,1.5,0.1,2.2c0,0.5,0.1,1,0,1.5C99.5,98.9,99.5,99.2,99.4,99.4z
			 M99.7,93.2c-0.3-0.7-0.5-1.3-0.8-2l-0.1-0.4c-0.3-0.8-0.7-1.9-0.4-2.6c0.2-0.4,0.8-0.6,1.2-0.4c0.8,0.2,1.2,1.3,1.4,2
			c0.2,0.7,0.4,1.5,0.5,2.3c0,0.1,0.1,0.2,0.1,0.2c-0.1,0.1-0.1,0.1-0.2,0.2c-0.3,0.1-0.7-0.1-1,0C100,92.6,99.8,92.9,99.7,93.2z
			 M102.2,90c-0.1,0.1-0.1,0.2-0.1,0.3c-0.1-0.3-0.1-0.6-0.2-0.9c-0.3-0.9-0.8-2.2-2-2.6c-0.2-0.1-0.5-0.1-0.8-0.1
			c0-1.4,0.1-2.6,0.5-3.7c0.7-2.4,1.5-3,2-3.1c0.4-0.1,0.6,0,0.7,0.1c0.9,0.7,0.8,3.5,0.8,4.7c0,0.2,0,0.4,0,0.5c0,0.1,0,0.3,0,0.4
			c-0.1,0.9-0.2,1.9-0.2,2.7c0,0.2,0.1,0.3,0.2,0.4c-0.1,0.1-0.2,0.2-0.3,0.3c0,0,0,0,0,0C102.8,89.3,102.3,89.9,102.2,90z
			 M103.8,88c0.1-0.7,0.1-1.4,0.1-2.1c0,0,0,0,0,0c0.2-1.5,0.7-2.9,1.2-4c0.1-0.2,0.2-0.4,0.2-0.5c0.3-0.6,0.4-1,1-1.1
			c0.4-0.1,0.9-0.1,1.2,0.2c-0.2,0.5-0.5,0.9-0.6,1.4c-0.4,1.5-1.4,2.8-2,4.2C104.7,86.8,104.3,87.4,103.8,88L103.8,88z M71.5,95.5
			c0.4,0.2,0.7,0.4,1.1,0.6c1.6,0.8,3.2,1.7,4.2,3.3c0.8,1.3,1,2.8,1.3,4.3c0.2,1.1,0.4,2.2,0.8,3.2c1.7,4.6,6.8,6.6,11.9,7.9
			c0.4,0.2,0.8,0.4,1.3,0.6c-0.8,0.1-1.6,0.1-2.4,0.1c-4.5,0-8.2-1-10.9-2.9c-0.3-0.2-0.5-0.5-0.9-0.7c-0.1,0-0.1-0.1-0.2-0.1
			c-2.1-1.8-3.2-4.5-4.2-7.2c-0.3-0.9-0.7-1.8-1-2.6c-0.5-1.1-1.1-2.2-1.7-3.2c-1.2-2.1-2.3-4.2-2.7-6.5
			C68.8,93.8,70.2,94.8,71.5,95.5z M85.9,109c-1.4-2.3-1.9-5.1-2.3-7.7c-0.2-0.9-0.3-1.9-0.5-2.8c-0.6-2.9-1.8-5.6-2.9-8.2
			c-0.1-0.3-0.3-0.7-0.4-1c0.2,0.2,0.5,0.3,0.7,0.4c0.7,0.3,1.1,0.5,1.6,1c0.4,0.4,0.6,0.9,0.7,1.5c0.1,0.1,0.1,0.3,0.1,0.4
			c0.1,0.1,0.1,0.3,0.2,0.4c0.2,0.4,0.3,0.7,0.3,1.1c0,0.3,0.1,0.5,0.2,0.7c0.5,0.6,1.2,0.9,1.9,0.8c0.7,0,1.5-0.5,2.1-0.2
			c0.3,0.2,0.6,0.5,0.8,0.9c0.1,0.2,0.2,0.3,0.3,0.4c0.4,0.5,0.9,1,1.6,1.3c0.8,0.3,1.3,0.1,2.1-0.1c0.4-0.1,0.7-0.3,1.1-0.3
			c0.1,0,0.2,0,0.2,0c0.1,0,0.2,0.1,0.3,0.1c0.1,0,0.2,0,0.3,0.1c0.2,0.1,0.6,0.3,0.7,0.6c0,0.1,0.1,0.2,0.3,0.2
			c0.1,0.3,0.2,0.6,0.2,0.8l0,0.2c0.2,0.7,0.2,1.4,0.1,2.2c0,0.6,0,1.2,0.1,1.9c0.3,2.1,0.9,4,1.8,5.7c1.1,2,2.7,3.4,4.6,4.1
			c-1,0.2-1.9,0.4-2.8,0.7c-0.3,0.1-0.6,0.2-0.8,0.3c-0.6,0.2-1.1,0.4-1.7,0.4c-0.8,0.1-1.8-0.1-2.6-0.2
			C90.5,113.7,87.5,111.7,85.9,109z M100.6,111.7c-1.6-1.3-2.4-3.6-2.8-5.5c-0.2-1-0.4-2-0.6-3c0-0.7,0.2-1.3,0.6-2.1
			c0.4,0.3,0.8,0.6,1.3,0.6c0.2,0,0.4,0,0.6-0.1c0.8-0.4,1-1.7,1.1-2.4l0-0.1c0.1-1.1,0-2.3,0-3.4l0-0.4c0-0.2,0-0.4-0.1-0.6
			c-0.1-0.5-0.1-1-0.1-1.5c0.2,0.1,0.4,0.1,0.6,0.2c0.4,0.1,0.8,0.2,1.1,0.3c0.1,0,0.1,0,0.2,0c0.2,0,0.3-0.1,0.4-0.2
			c0.1-0.1,0.2-0.3,0.1-0.5c-0.3-1.2,0.1-3.2,1.5-3.5c0,0,0.1,0,0.1,0c0.3,1.3,1,2.6,1.7,3.8c0.4,0.6,0.8,1.3,1.1,1.9
			c0.6,1,1.3,2,1.8,3.1c0.8,1.6,1.2,3.3,1.2,5.3c0,1.4,0,3.3-0.6,5.1c-0.2,0.7-0.5,1.4-1,2.1c-0.2,0.3-0.4,0.5-0.7,0.7
			c-0.2,0.2-0.4,0.4-0.6,0.7c0,0,0,0,0,0c-1.1,0.4-2.2,0.6-3.3,0.6h0C102.9,112.9,101.7,112.5,100.6,111.7z M111.5,104.7
			c0.1-1.7-0.2-3.3-0.7-4.7c-0.5-1.6-1.4-3-2.3-4.3c-0.2-0.4-0.4-0.7-0.7-1.1l-0.1-0.1c-1-1.7-2.1-3.4-2.4-5.3
			c-0.1-0.8,0-1.5,0.6-2.5c0.1-0.1,0.1-0.2,0.2-0.3c0.9-1.6,1.7-3.3,2.6-5c0.4-0.8,0.4-1.8,1-2.5c0.4-0.5,1.1-0.6,1.6-0.9
			c0.4-0.2,1.6-0.7,1.7-1.1c-0.8,1.9-1.5,4-1.3,6.3c0.1,1.3,0.5,2.7,0.9,3.9c0.7,2,1.4,3.4,2.4,4.7c0.2,0.2,0.3,0.4,0.5,0.6
			c0.4,0.4,0.7,0.8,1,1.4c0.6,1.3,1.4,3,1.1,4.5c-0.3,1.9-0.2,3.8-0.4,5.6c-0.3,1.9-2,3.8-3.2,5.2c-0.1,0-0.2,0-0.2,0.1l-0.8,0.5
			c-0.7,0.4-1.4,0.8-2.2,1.2c-0.5,0.1-0.9,0.3-1.2,0.5C110.9,109.8,111.5,107.7,111.5,104.7z M133,74c0.8-0.7,2.1-1.6,3.2-1.6
			c0.3,0,0.7,0,1-0.1c0.5,0,1-0.1,1.6-0.1c0.7-0.1,1-0.3,1.3-0.9c0.1-0.3,0.1-0.6,0.2-0.8c0-0.2,0-0.4,0.1-0.5
			c0.1-0.3,0.5-0.7,0.8-1c0.1-0.1,0.2-0.2,0.3-0.2c0.9-0.8,1.6-1.5,2.3-2c0.3-0.3,0.6-0.5,1-0.7c-0.1,0.3-0.1,0.6-0.2,0.9
			c-0.3,1.6,0.6,2.5,1.5,3.5c0.2,0.2,0.3,0.3,0.5,0.5c1.2,1.3,1.6,2.9,1.9,4.4c0,0,0,0.1,0,0.1c0,0,0,0,0,0.1c0,0.1,0,0.1,0.1,0.1
			c0,0.1,0,0.1,0,0.2c0.3,1.6,0.4,3.3,0.2,4.9c-0.2,1.8-1.4,3.9-2.8,5.1c-0.2,0.2-0.5,0.4-0.7,0.6c-0.4,0.4-0.7,0.9-0.9,1.4
			c-0.6,0.5-0.9,1.2-1.1,2.2c-0.1,0.3-0.1,0.6-0.1,1c-0.1,0.9-0.2,1.8-1,2.3c-0.5,0.4-1.1,0.6-1.7,0.6c-1,0-2-0.5-2.9-0.9
			c-0.2-0.1-0.4-0.2-0.6-0.3c-1.2-0.6-2.3-0.1-2.9,1.2c-0.2,0.4-0.3,0.8-0.4,1.2c-0.1,0.4-0.2,0.8-0.3,1.1c-0.4,1-1.4,1.7-2.4,1.7
			c-2.2,0.1-3.8,0.5-5.3,1.4c-1.3,0.8-2.4,2-3.4,3.2c-0.5,0.6-1,1.1-1.5,1.6c-1,1-2.2,2-3.3,2.9c0.5-0.7,1.1-1.3,1.6-2
			c1.7-1.9,3.1-3.7,4.3-5.4c2.6-3.7,4.3-7.8,5.1-12c0.2-1.1,0.3-2.2,0.4-3.2c0.2-1.4,0.3-2.9,0.7-4.2C130.2,77.7,131.4,75.5,133,74z
			 M112.6,58.1c0.5-0.1,1.1-0.2,1.6-0.5c0.5-0.3,0.9-0.6,1.4-0.9c0.5-0.4,1.1-0.7,1.7-1c1.7-0.9,3.4-0.3,4.4,1.5
			c0.1,0.2,0.2,0.5,0.4,0.7c0.7,1.3,1.3,2.7,2.9,2.7c0.3,0,0.6,0,0.9-0.1c1.3-0.4,2.1-1.2,3-2.1c0.1-0.2,0.3-0.3,0.4-0.5
			c0.2-0.2,0.4-0.3,0.6-0.3c1.5,0,1.9,1.6,1.9,2.8c0,0.7-0.9,3.7,0.5,2.7c1.1-0.8,2.4-2.3,3.9-1.4c0.6,0.3-0.1,2.4-0.3,3.2
			c-0.1,0.2-0.1,0.3-0.1,0.4c-0.6,2.1-1.7,4.1-2.8,6c-0.6,1.1-1.3,2.3-1.8,3.5c-0.9,1.1-1.5,2.5-2.1,4.3c-0.5,1.5-0.7,3-0.8,4.5
			c-0.3-1.8-1-3.5-1.7-5l-0.3-0.8c-0.9-2-1.9-4.1-1.9-6.4c0-1,0-1.5-1.1-1.7c-1.1-0.1-2.2,0.1-3.2,0.2c-1.5,0.2-2.9,0.4-4.3,0.9
			c-0.8,0.3-1.6,0.8-2.2,1.3c0-0.9-0.3-1.7-0.9-2.3c-1.6-1.8-5.2-1.9-7.6-2l-0.5,0c-0.3,0-0.6,0-0.9,0c0,0,0,0,0,0
			c-0.2-1,0.5-2.3,0.9-2.9c0.6-1,1.4-1.4,2.4-1.8l0.3-0.1c0.6-0.3,0.9-1,1.1-1.6l0.1-0.2c0.5-1.5,1.5-2.4,3.1-2.9
			C112,58.3,112.3,58.2,112.6,58.1z M89.7,58.8c0.5-0.8,1.3-1.6,2-2.2l0.5-0.5c0.7-0.7,1.5-1.5,2.5-1.8c0.2-0.1,0.5-0.1,0.9,0
			c0.3,0.1,0.4,0.2,0.4,0.3c0.1,0.1,0.1,0.2,0.2,0.4c0.3,0.4,0.7,0.6,1.1,0.7c0.9,0.2,1.6-0.1,1.8-1c0.1-0.3,0.1-0.3,0.3-0.4
			c0.1,0,0.2,0,0.3-0.1c0.2-0.1,0.4-0.2,0.6-0.4c0.4-0.4,0.5-0.9,0.5-1.4c0-0.1,0-0.3,0-0.4c0-0.5,0.1-0.9,0.3-1.3
			c0.2-0.3,0.7-0.4,1.1-0.4l0.1,0c0.6,0,0.9,0.3,1.2,1c0.3,0.6,0.9,1,1.6,1c0.6,0,1.2-0.3,1.5-0.8c0.1-0.2,0.4-0.3,0.6-0.5
			c0.3-0.2,0.6-0.3,0.8-0.6c0.3-0.4,0.6-0.5,1-0.5c0.7,0,1.5,0.6,2.1,1.2c0.9,0.9,1.2,1.9,1.2,3.3c0,0.3-0.1,0.7-0.2,1.1
			c-0.2,0.9-0.4,1.9-1.3,2.4c-1,0.6-2,1-2.5,2.2c-0.1,0.3-0.2,0.5-0.3,0.8c-0.1,0.4-0.3,0.8-0.5,1.2c-0.2,0.4-0.7,0.5-1.2,0.7
			c-0.2,0.1-0.4,0.1-0.6,0.2c-1.4,0.6-2.7,2.8-2.8,4.4c-0.4-0.2-0.5-0.8-0.6-1.5c0-0.1,0-0.2-0.1-0.3c-0.1-0.7-0.3-1.4-0.7-2.1
			c-0.9-1.3-2.5-2.3-4.8-2.8c0,0-0.1,0-0.1,0c-0.1,0-0.2,0-0.3,0.1c-0.1,0.1-0.1,0.2-0.1,0.3c0,0.2,0,0.4,0,0.6c0,0.4,0,0.9,0.2,1.2
			c-0.1,0.1-0.5,0.4-1.5,0.9c-0.1,0.1-0.2,0.1-0.2,0.1c-0.4,0.2-0.8,0.3-1.2,0.3c-0.6,0-1.2-0.2-1.8-0.4c-0.3-0.1-0.6-0.2-1-0.3
			c-0.3-0.1-0.6-0.1-0.9,0C89.2,62.2,88.7,60.5,89.7,58.8z M66.4,75.5c-0.5-0.6-0.2-1.6,0.1-2.3c0.4-0.9,0.9-1.7,1.7-2.4l0.2-0.2
			c0.5-0.4,1-0.9,1.3-1.5c0.9-1.7-0.5-3.8-1-4.5l-0.1-0.1c-0.5-0.7-0.7-1.1-0.4-1.7c0.7-1.1,1.8-1.4,3-1.8c0.3-0.1,0.6-0.2,0.8-0.3
			c0.2-0.1,0.4-0.2,0.6-0.3c0.2-0.1,0.5-0.2,0.7-0.3c0.1,0,0.1,0,0.2,0c0.1,0,0.3-0.1,0.4-0.1c0.5-0.3,0.8-0.8,0.8-1.4
			c0-1.3,0.7-2,1.9-2c0.1,0,0.1,0,0.2,0c1.2,0.1,1.9,0.9,2.6,1.8l0.2,0.2c0.4,0.6,0.9,0.8,1.5,0.8c0.4,0,0.8-0.1,1.1-0.3
			c0.4-0.1,0.8-0.3,1.3-0.3c0.7-0.1,1.6,0.5,2.3,1c0,0,0.2,0.1,0.2,0.1c1.5,1,2.5,2.5,3.1,4.2c-0.2,0.2-0.3,0.4-0.4,0.6
			c-0.1,0.3-0.1,0.5-0.1,0.8c0,0.2,0,0.4,0,0.5c0,0.2-0.2,0.6-1,0.6c-0.4,0-0.9-0.1-1.3-0.2c-0.1,0-0.2,0-0.3-0.1
			c-0.3,0-0.6-0.1-0.8-0.1c-0.4,0-0.8,0-1.2-0.2c-0.1,0-0.1-0.1-0.2-0.1c-0.2-0.1-0.5-0.2-0.7-0.2c-0.3,0.1-0.6,0.3-0.9,0.6
			c-0.4,0.6-0.6,1.4-0.5,2c0.3,1.3,1.1,2.4,1.9,3.5c0.1,0.2,0.3,0.4,0.4,0.6c0.2,0.3,0.4,0.6,0.6,0.9c-0.4-0.3-0.8-0.5-1-0.6
			c-1-0.4-2-0.5-3-0.3c-0.7,0.2-1.3,0.8-1.8,1.3c-0.1,0.1-0.3,0.2-0.4,0.4c-0.4,0.4-1,0.8-1.6,1c-0.1,0-0.3,0-0.4,0.1
			c-0.3,0-0.6,0.1-0.8,0.2c-0.7,0.3-1.1,1-1,1.9c0.1,0.6,0.4,0.9,0.7,1.3c0.3,0.4,0.6,0.8,0.6,1.3c0,0.2,0,0.5,0,0.7
			c-0.9-1.8-2.1-3-3.7-3.4c-0.7-0.2-1.5-0.3-2.2-0.5c-0.7-0.1-1.4-0.3-2.1-0.5C67.2,76.2,66.7,75.9,66.4,75.5z M55.7,91.5
			c0.1-0.5,0.5-0.8,1.2-1c0.1,0,0.2-0.1,0.3-0.3c0-0.1,0-0.3-0.1-0.3c-1-1-1.3-2.1-0.9-3.3c1-2.7,5.4-4.9,7.8-5.1
			c0.1,0,0.3-0.1,0.3-0.2c0.1-0.1,0.1-0.2,0-0.4c-0.4-0.8-0.4-1.5,0-2c0.7-1.1,2.8-1.6,4.4-1.6c0.3,0,0.5,0.1,0.7,0.1
			c0.2,0,0.3,0.1,0.5,0.1l0.3,0c0.8,0.1,1.7,0.3,2.5,0.6c1,0.4,1.6,1.2,2.2,2.1c0.1,0.2,0.2,0.3,0.4,0.5c0,0.1,0,0.1,0.1,0.2
			c0,0.1,0.1,0.1,0.1,0.2c0,0,0.1,0.1,0.1,0.1c0,0.1,0.1,0.2,0.1,0.2c-0.1,0.1-0.3,0.1-0.5,0.1l-0.4,0c-1.4,0-3,0.9-3.1,2.5
			c0,0.4,0,0.8,0.1,1.2c0.1,0.5,0.2,1,0,1.6c-0.3,1.1-1.1,1.6-2.3,2c-4.6,1.7-0.6,8.2,0.8,10.7c0.5,0.8,0.9,1.6,1.3,2.3
			c0.5,1,0.9,2.1,1.3,3.1c0.9,2.2,1.8,4.4,3.3,6.1c-1.6-0.7-3-1.4-4.4-2.4c-1.5-1.2-2.9-2.7-4.2-5c-0.3-0.5-0.6-1-0.8-1.5
			c-0.5-0.9-1-1.9-1.7-2.8c-1-1.3-2.5-1.9-3.8-2.5c-0.7-0.3-1.5-0.6-2.2-1.1C57.8,95.1,55.5,92.8,55.7,91.5z M64.2,106.9
			c-2.4-1.7-4.7-3.4-6.2-6c-0.9-1.6-1.7-3.3-2.2-5.2c-0.3-0.9-0.5-2-0.5-3c0.3,0.8,0.8,1.4,1.1,1.8c0.6,0.7,1.6,1.7,2.8,2.3
			c0.5,0.3,1.1,0.5,1.6,0.7c0.8,0.3,1.6,0.7,2.3,1.1c1.3,0.8,2.1,2.2,2.9,3.7c0.9,1.7,2,3.6,3.6,5.3c1.4,1.6,2.9,2.8,4.5,3.5
			c2.5,1.2,5.1,2.5,7.7,3.5c1.5,0.6,3.1,0.9,4.7,1.1c0.5,0.1,1.1,0.1,1.6,0.2c-0.9,0.1-1.9,0.1-2.8,0.1c-1.4,0-2.6-0.1-3.8-0.2
			c-5.2-0.6-9.8-2.6-13.3-5.9C66.9,108.8,65.5,107.8,64.2,106.9z M53.5,120.2c-0.4-0.2-0.6-0.3-0.9-0.6c-0.4-0.3-0.4-0.4-0.3-0.9
			l0-0.1c0-0.9-0.1-1.4-0.7-2.3c-0.2-0.2-0.4-0.5-0.6-0.7c-0.7-0.8-1.2-1.4-0.9-2.4c0.1-0.4,0.6-0.8,1-1.1c0.1-0.1,0.2-0.1,0.3-0.2
			c0.6-0.5,1-1,1.3-1.6c0.1-0.1,0.1-0.2,0.1-0.3c0,0,0,0,0,0c0.1-0.2,0-0.4-0.1-0.5c-1.1-1.1-1.1-2.4-0.9-3.4l0.3,0.1
			c0.3,0.1,0.5-0.1,0.6-0.3c0.1-0.3,0.1-0.6,0.2-0.9c0-0.1,0-0.2,0-0.3c0,0,0-0.1,0-0.1c0,0,0.1,0,0.2,0c0.9,0,1.8,0.7,2.5,1.3
			l0.2,0.2c0.5,0.4,1,0.9,1.6,1.3c0.8,0.5,1.8,0.7,2.7,0.9c0.2,0,0.4,0.1,0.5,0.1c2.1,0.5,4,1.5,5.8,2.6c1,0.6,2,1.2,2.8,1.7
			c0.4,0.3,0.8,0.5,1.2,0.8c1.9,1.4,4.5,2.1,6.8,2.7c2.5,0.6,5.1,1,7.9,1c2,0,4.1-0.2,6.1-0.5c0.6-0.1,1.1-0.2,1.7-0.3
			c0.4-0.1,0.9-0.1,1.3-0.2c0.5,0.1,0.9,0.2,1.3,0.2c0,0,0,0,0,0.1c0,0,0,0,0,0.1c-0.8,0.6-1.5,1.4-2.2,2.1c-0.5,0.2-0.9,0.6-1.2,1
			l-0.3,0.3c-0.2,0.2-0.5,0.5-0.7,0.8c0,0-0.1,0-0.1,0.1c-0.5,0.4-0.8,0.9-1.2,1.4l-0.3,0.4c-0.2,0.2-0.4,0.4-0.6,0.6
			c-0.3,0.4-0.7,0.7-1,1.2c0,0,0,0,0,0c-0.5,0.5-0.9,0.9-1.3,1.4c-0.3,0.4-0.7,0.7-1,1.1c-1.7,1.3-3.7,2.7-6,3.4
			c-0.4,0.1-0.9,0.2-1.4,0.2c-0.7,0-1.7-0.2-2.3-1c-0.7-1-1.8-1.2-2.8-1.2l-0.1,0c-0.9,0-1.9,0.3-2.8,1c-1,0.8-1.9,1.5-2.9,2.4
			c-1.1,1-2.5,1.3-3.7,0.7c-0.5-0.3-0.9-0.7-1.3-1.2c-0.3-0.3-0.5-0.6-0.8-0.9c-0.4-0.3-0.9-0.6-1.4-0.8c-0.8-0.3-1.5-0.6-1.7-1.3
			c-0.2-0.5-0.4-1.1-0.5-1.7c-0.1-0.4-0.2-0.9-0.4-1.3c-0.4-1.1-1-2.1-1.8-3C55.2,121.3,54.4,120.5,53.5,120.2z M81,132l-0.2,0.2
			c-0.7,0.6-1.4,1.3-2.1,1.9c-2.6,2.4-5.2,4.8-8.7,5.3c-0.4,0.1-0.9,0.1-1.3,0.1c-3.7,0-7.4-2.1-9.4-5.2c-0.8-1.2-1-2.6-1.3-4
			c-0.2-1-0.4-2-0.7-3c-0.3-0.8-0.7-1.6-1.1-2.4c-0.3-0.5-0.5-1.1-0.8-1.7c0.6,0.6,1,1.3,1.4,2.1c0.3,0.6,0.5,1.2,0.6,1.8
			c0.1,0.4,0.3,0.9,0.4,1.3c0.3,0.9,1.2,1.2,1.9,1.6c0.2,0.1,0.4,0.2,0.6,0.3c0.7,0.3,1.2,0.9,1.7,1.4c0.7,0.7,1.5,1.5,2.7,1.7
			c0.2,0,0.3,0,0.5,0c0.7,0,1.5-0.2,2.1-0.7c0.3-0.2,0.6-0.5,0.9-0.7l0.3-0.2c0.5-0.4,1-0.7,1.5-1l0.4-0.2c1.1-0.6,2.5-0.8,3.7-0.5
			c0.2,0.1,0.4,0.2,0.6,0.3c0.2,0.1,0.3,0.2,0.5,0.2c0.7,0.2,1.2,0.4,1.9,0.6c0.3,0.1,0.5,0.1,0.8,0.1c1.4,0,2.9-0.7,4.1-1.3
			c1.4-0.7,2.8-1.7,4-2.7c0.1-0.1,0.2-0.2,0.3-0.2C84.9,128.7,82.9,130.4,81,132z M87.6,135.6C87.6,135.6,87.6,135.5,87.6,135.6
			c0-0.1-0.1-0.2-0.1-0.2c-0.1-0.1-0.2-0.1-0.3,0c-0.8-0.6-1.3-1.4-1.5-2.4c-0.3-1.3,0.3-2.7,0.9-3.7c0.8-1.5,1.8-2.8,2.9-4.1
			c0.5-0.6,1-1.3,1.5-1.9c1.2-1.6,2.3-3,3.4-4.3c0-0.1,0.1-0.1,0.2-0.2c0.7-0.8,1.4-1.6,2.1-2.4c0,0,0-0.1,0-0.1
			c0,0.1,2.3-0.6,2.5-0.6c1-0.3,2-0.7,3.1-0.9c1.2-0.3,2.4-0.3,3.5-0.5c1.2-0.2,2.4-0.4,3.7-0.6c2.5-0.3,5.2-0.8,7.4,0.7
			c2.3,1.5,4,3.7,5.5,5.7c0.2,0.3,0.5,0.6,0.7,0.9c0.4,0.5,0.9,1,1.1,1.5c0.3,0.7-0.1,1-0.9,1.5l-0.1,0.1c-1.7,1.1-3.2,1.5-4.7,1.4
			c-1.5-0.1-2.7-0.7-4.1-1.3c-0.3-0.1-0.5-0.2-0.8-0.4c-0.3-0.1-0.6,0-0.7,0.3c-0.4,0.9-0.8,1.6-1.7,1.9c-0.3,0.1-0.6,0.1-0.9,0.1
			c-0.1,0-0.2,0-0.3,0c-0.2,0-0.5,0.1-0.7,0.1c-0.4,0.1-0.7,0.1-1,0.1c-1.5,0.1-3.4,0.3-4.9,1.3c-1,0.7-1.7,1.7-2.4,2.8
			c-0.2,0.2-0.3,0.5-0.5,0.7c-1.2,1.7-2.8,3.6-5.2,4.7c-2.3,1.1-4.8,1.2-7,0.3c-0.1-0.1-0.2-0.1-0.4-0.2
			C87.9,135.6,87.8,135.6,87.6,135.6C87.7,135.6,87.6,135.6,87.6,135.6z M107.3,137.6c-0.7,0.3-1.3,0.9-1.8,1.5
			c-0.4,0.5-0.9,1-1.4,1.3c-2,1.2-4.6,1.7-7.6,1.4c-3.8-0.3-8.1-1.9-8.8-5.3c0.1,0,0.1-0.1,0.1-0.2c1,0.5,2.2,0.8,3.5,0.8
			c0.2,0,0.4,0,0.5,0c2.5-0.1,4.7-1.4,6-2.4c1.4-1.1,2.4-2.5,3.4-3.9c0.3-0.4,0.5-0.8,0.8-1.2c1.3-1.7,2.7-2.5,4.7-2.6
			c0.3,0,0.7,0,1,0c0.4,0,0.7,0,1,0.1c0.2,0,0.3,0.1,0.5,0.1c0.3,0.1,0.5,0.2,0.8,0.2c0.9,0.1,1.7-0.2,2.4-0.7
			c0.6-0.4,1-1.2,1.2-1.9c0.3,0.1,0.6,0.2,0.8,0.3c1.2,0.4,2.5,0.8,3.8,1c0.3,0,0.6,0.1,0.9,0.1c1.6,0,3.1-0.6,4.4-1.3
			c0.4-0.2,0.7-0.4,0.9-0.6c0.1,0.5,0.1,1,0.2,1.5c0.4,2.1,0.7,4.1-1,5.8c-2.4,2.5-5.8,3.2-9,3.8c-2,0.4-3.8,1-5.6,1.6
			C108.6,137.2,108,137.4,107.3,137.6z M133.3,123.5c-0.7,0.6-1,1.2-1,2.1c0,0.3,0,0.7,0.1,1c0,0.2,0,0.4,0.1,0.5
			c0,0.6-0.1,1.2-0.5,1.9c-0.2,0.4-0.5,0.8-0.8,1.1l-0.1,0.1c-0.1,0.1-0.1,0.1-0.1,0.2c-0.1,0.2-0.1,0.2-0.3,0.2
			c-0.1,0-0.2,0.1-0.3,0.1c-0.2,0-0.4,0.1-0.6,0.1c-0.3,0.1-0.5,0.1-0.8,0.1c-0.2,0-0.4,0.1-0.5,0.4c-0.1,0.7-0.5,1.4-0.8,2.1
			c-0.1,0.2-0.2,0.5-0.3,0.7c-0.5,1-0.9,1.9-1.4,2.6c-1.1,1.6-2.8,2.7-5.1,3.3c-2.6,0.7-4.8,0.8-6.8,0.2c-1.6-0.5-3-1.5-4.2-2.5
			c0,0,0.1-0.1,0.1-0.1c0,0,0.1-0.1,0.1-0.1c1.5-0.6,3.2-1,4.8-1.3c3.6-0.9,7.4-1.7,9.9-4.6c0.9-1,1.3-2.3,1.2-3.9
			c-0.1-1-0.2-2-0.4-2.9c-0.1-0.5-0.2-1-0.2-1.5c0.1-0.2,0.1-0.4,0.1-0.6c0-0.7-0.6-1.3-1.1-1.9c-0.1-0.1-0.2-0.2-0.3-0.3
			c-0.6-0.7-1.3-1.5-1.9-2.2c-1.3-1.6-2.6-3.2-4.3-4.5c-1-0.7-2.1-1.3-3.3-1.6c-0.8-0.2-1.9-0.1-2.6-0.5c1.3-1.4,5,0.4,6.4,0.8
			c1.8,0.5,3.6,1.2,5.3,1.8c0.4,0.1,0.7,0.2,0.9,0.3c0.6,0.2,1.3,0.4,1.9,0.6c1.3,0.4,2.7,0.9,4,1.4c1.7,0.7,3.8,2.6,4,4.5
			C134.4,122,134.1,122.8,133.3,123.5z M151,111.5c-0.2,0.1-0.4,0.3-0.6,0.4c-1.4,1.1-2.7,2-4.3,2.7c-0.8,0.3-1.8,0.8-2.8,1.6
			c-0.4,0.3-0.8,0.7-1.2,1c-0.7,0.7-1.4,1.3-2.3,1.8c-1.2,0.7-2.4,0.8-3.7,0.5c-0.1,0-0.1,0-0.2-0.1c-0.1-0.1-0.2-0.1-0.4-0.1
			c-0.1-0.1-0.3-0.2-0.4-0.4c-0.2-0.4-0.5-0.7-0.8-0.9c-1.5-1.2-3.4-1.9-5.1-2.6l-0.1,0c-0.8-0.3-1.7-0.6-2.5-0.8
			c-1-0.3-2.1-0.7-3.1-1.1c-2.2-0.9-4.9-1.8-7.7-2.4c-0.5-0.1-1.1-0.2-1.8-0.3c0.5-0.3,1-0.5,1.5-0.8c4.3-2.2,8.8-4.5,13.6-4.7
			c1-0.1,2.1-0.1,3.3-0.1c1.1,0,2.2,0,3.7,0.1c4,0.1,7.3,0.4,10.2,1l0.2,0c1.9,0.3,5.5,1,6.1,3.1C152.9,110.2,151.8,111,151,111.5z"
			/>
	</g>
</g>
</svg>
